<svg width="218" height="50" viewBox="0 0 218 50" fill="none" xmlns="http://www.w3.org/2000/svg">
<rect width="218" height="50" rx="8" fill="#C40061" fill-opacity="0.18"/>
<rect x="0.5" y="0.5" width="217" height="49" rx="7.5" stroke="#FF007E" stroke-opacity="0.27"/>
<path d="M39.5026 30.098C38.5973 30.098 37.762 29.888 36.9966 29.468C36.2406 29.0387 35.6386 28.446 35.1906 27.69C34.752 26.9247 34.5326 26.066 34.5326 25.114C34.5326 24.162 34.752 23.308 35.1906 22.552C35.6386 21.796 36.2406 21.208 36.9966 20.788C37.762 20.3587 38.5973 20.144 39.5026 20.144C40.4173 20.144 41.2526 20.3587 42.0086 20.788C42.774 21.208 43.376 21.796 43.8146 22.552C44.2533 23.308 44.4726 24.162 44.4726 25.114C44.4726 26.066 44.2533 26.9247 43.8146 27.69C43.376 28.446 42.774 29.0387 42.0086 29.468C41.2526 29.888 40.4173 30.098 39.5026 30.098ZM39.5026 28.712C40.1466 28.712 40.7206 28.5673 41.2246 28.278C41.7286 27.9793 42.1206 27.5593 42.4006 27.018C42.69 26.4673 42.8346 25.8327 42.8346 25.114C42.8346 24.3953 42.69 23.7653 42.4006 23.224C42.1206 22.6827 41.7286 22.2673 41.2246 21.978C40.7206 21.6887 40.1466 21.544 39.5026 21.544C38.8586 21.544 38.2846 21.6887 37.7806 21.978C37.2766 22.2673 36.88 22.6827 36.5906 23.224C36.3106 23.7653 36.1706 24.3953 36.1706 25.114C36.1706 25.8327 36.3106 26.4673 36.5906 27.018C36.88 27.5593 37.2766 27.9793 37.7806 28.278C38.2846 28.5673 38.8586 28.712 39.5026 28.712ZM49.9352 22.16C50.5418 22.16 51.0832 22.286 51.5592 22.538C52.0445 22.79 52.4225 23.1633 52.6932 23.658C52.9638 24.1527 53.0992 24.75 53.0992 25.45V30H51.5172V25.688C51.5172 24.9973 51.3445 24.47 50.9992 24.106C50.6538 23.7327 50.1825 23.546 49.5852 23.546C48.9878 23.546 48.5118 23.7327 48.1572 24.106C47.8118 24.47 47.6392 24.9973 47.6392 25.688V30H46.0432V22.286H47.6392V23.168C47.9005 22.8507 48.2318 22.6033 48.6332 22.426C49.0438 22.2487 49.4778 22.16 49.9352 22.16ZM62.205 25.954C62.205 26.2433 62.1863 26.5047 62.149 26.738H56.255C56.3016 27.354 56.5303 27.8487 56.941 28.222C57.3516 28.5953 57.8556 28.782 58.453 28.782C59.3116 28.782 59.9183 28.4227 60.273 27.704H61.995C61.7616 28.4133 61.337 28.9967 60.721 29.454C60.1143 29.902 59.3583 30.126 58.453 30.126C57.7156 30.126 57.053 29.9627 56.465 29.636C55.8863 29.3 55.429 28.8333 55.093 28.236C54.7663 27.6293 54.603 26.9293 54.603 26.136C54.603 25.3427 54.7616 24.6473 55.079 24.05C55.4056 23.4433 55.8583 22.9767 56.437 22.65C57.025 22.3233 57.697 22.16 58.453 22.16C59.181 22.16 59.8296 22.3187 60.399 22.636C60.9683 22.9533 61.4116 23.4013 61.729 23.98C62.0463 24.5493 62.205 25.2073 62.205 25.954ZM60.539 25.45C60.5296 24.862 60.3196 24.3907 59.909 24.036C59.4983 23.6813 58.9896 23.504 58.383 23.504C57.8323 23.504 57.361 23.6813 56.969 24.036C56.577 24.3813 56.3436 24.8527 56.269 25.45H60.539ZM66.8803 26.136C66.8803 25.3427 67.039 24.6473 67.3563 24.05C67.683 23.4433 68.131 22.9767 68.7003 22.65C69.2696 22.3233 69.923 22.16 70.6603 22.16C71.5936 22.16 72.3636 22.384 72.9703 22.832C73.5863 23.2707 74.0016 23.9007 74.2163 24.722H72.4943C72.3543 24.3393 72.1303 24.0407 71.8223 23.826C71.5143 23.6113 71.127 23.504 70.6603 23.504C70.007 23.504 69.4843 23.7373 69.0923 24.204C68.7096 24.6613 68.5183 25.3053 68.5183 26.136C68.5183 26.9667 68.7096 27.6153 69.0923 28.082C69.4843 28.5487 70.007 28.782 70.6603 28.782C71.5843 28.782 72.1956 28.376 72.4943 27.564H74.2163C73.9923 28.348 73.5723 28.9733 72.9563 29.44C72.3403 29.8973 71.575 30.126 70.6603 30.126C69.923 30.126 69.2696 29.9627 68.7003 29.636C68.131 29.3 67.683 28.8333 67.3563 28.236C67.039 27.6293 66.8803 26.9293 66.8803 26.136ZM77.4028 19.64V30H75.8068V19.64H77.4028ZM80.3102 21.264C80.0209 21.264 79.7782 21.166 79.5822 20.97C79.3862 20.774 79.2882 20.5313 79.2882 20.242C79.2882 19.9527 79.3862 19.71 79.5822 19.514C79.7782 19.318 80.0209 19.22 80.3102 19.22C80.5902 19.22 80.8282 19.318 81.0242 19.514C81.2202 19.71 81.3182 19.9527 81.3182 20.242C81.3182 20.5313 81.2202 20.774 81.0242 20.97C80.8282 21.166 80.5902 21.264 80.3102 21.264ZM81.0942 22.286V30H79.4982V22.286H81.0942ZM82.6576 26.136C82.6576 25.3427 82.8163 24.6473 83.1336 24.05C83.4603 23.4433 83.9083 22.9767 84.4776 22.65C85.047 22.3233 85.7003 22.16 86.4376 22.16C87.371 22.16 88.141 22.384 88.7476 22.832C89.3636 23.2707 89.779 23.9007 89.9936 24.722H88.2716C88.1316 24.3393 87.9076 24.0407 87.5996 23.826C87.2916 23.6113 86.9043 23.504 86.4376 23.504C85.7843 23.504 85.2616 23.7373 84.8696 24.204C84.487 24.6613 84.2956 25.3053 84.2956 26.136C84.2956 26.9667 84.487 27.6153 84.8696 28.082C85.2616 28.5487 85.7843 28.782 86.4376 28.782C87.3616 28.782 87.973 28.376 88.2716 27.564H89.9936C89.7696 28.348 89.3496 28.9733 88.7336 29.44C88.1176 29.8973 87.3523 30.126 86.4376 30.126C85.7003 30.126 85.047 29.9627 84.4776 29.636C83.9083 29.3 83.4603 28.8333 83.1336 28.236C82.8163 27.6293 82.6576 26.9293 82.6576 26.136ZM94.6362 26.15L98.1922 30H96.0362L93.1802 26.682V30H91.5842V19.64H93.1802V25.66L95.9802 22.286H98.1922L94.6362 26.15ZM106.865 22.16C107.472 22.16 108.013 22.286 108.489 22.538C108.974 22.79 109.352 23.1633 109.623 23.658C109.894 24.1527 110.029 24.75 110.029 25.45V30H108.447V25.688C108.447 24.9973 108.274 24.47 107.929 24.106C107.584 23.7327 107.112 23.546 106.515 23.546C105.918 23.546 105.442 23.7327 105.087 24.106C104.742 24.47 104.569 24.9973 104.569 25.688V30H102.973V22.286H104.569V23.168C104.83 22.8507 105.162 22.6033 105.563 22.426C105.974 22.2487 106.408 22.16 106.865 22.16ZM115.411 30.126C114.683 30.126 114.025 29.9627 113.437 29.636C112.849 29.3 112.387 28.8333 112.051 28.236C111.715 27.6293 111.547 26.9293 111.547 26.136C111.547 25.352 111.719 24.6567 112.065 24.05C112.41 23.4433 112.881 22.9767 113.479 22.65C114.076 22.3233 114.743 22.16 115.481 22.16C116.218 22.16 116.885 22.3233 117.483 22.65C118.08 22.9767 118.551 23.4433 118.897 24.05C119.242 24.6567 119.415 25.352 119.415 26.136C119.415 26.92 119.237 27.6153 118.883 28.222C118.528 28.8287 118.043 29.3 117.427 29.636C116.82 29.9627 116.148 30.126 115.411 30.126ZM115.411 28.74C115.821 28.74 116.204 28.642 116.559 28.446C116.923 28.25 117.217 27.956 117.441 27.564C117.665 27.172 117.777 26.696 117.777 26.136C117.777 25.576 117.669 25.1047 117.455 24.722C117.24 24.33 116.955 24.036 116.601 23.84C116.246 23.644 115.863 23.546 115.453 23.546C115.042 23.546 114.659 23.644 114.305 23.84C113.959 24.036 113.684 24.33 113.479 24.722C113.273 25.1047 113.171 25.576 113.171 26.136C113.171 26.9667 113.381 27.6107 113.801 28.068C114.23 28.516 114.767 28.74 115.411 28.74ZM122.854 23.588V27.858C122.854 28.1473 122.92 28.3573 123.05 28.488C123.19 28.6093 123.424 28.67 123.75 28.67H124.73V30H123.47C122.752 30 122.201 29.832 121.818 29.496C121.436 29.16 121.244 28.614 121.244 27.858V23.588H120.334V22.286H121.244V20.368H122.854V22.286H124.73V23.588H122.854ZM127.013 21.264C126.724 21.264 126.481 21.166 126.285 20.97C126.089 20.774 125.991 20.5313 125.991 20.242C125.991 19.9527 126.089 19.71 126.285 19.514C126.481 19.318 126.724 19.22 127.013 19.22C127.293 19.22 127.531 19.318 127.727 19.514C127.923 19.71 128.021 19.9527 128.021 20.242C128.021 20.5313 127.923 20.774 127.727 20.97C127.531 21.166 127.293 21.264 127.013 21.264ZM127.797 22.286V30H126.201V22.286H127.797ZM133.127 23.588H131.699V30H130.089V23.588H129.179V22.286H130.089V21.74C130.089 20.8533 130.322 20.2093 130.789 19.808C131.265 19.3973 132.007 19.192 133.015 19.192V20.522C132.529 20.522 132.189 20.6153 131.993 20.802C131.797 20.9793 131.699 21.292 131.699 21.74V22.286H133.127V23.588ZM135.353 21.264C135.064 21.264 134.821 21.166 134.625 20.97C134.429 20.774 134.331 20.5313 134.331 20.242C134.331 19.9527 134.429 19.71 134.625 19.514C134.821 19.318 135.064 19.22 135.353 19.22C135.633 19.22 135.871 19.318 136.067 19.514C136.263 19.71 136.361 19.9527 136.361 20.242C136.361 20.5313 136.263 20.774 136.067 20.97C135.871 21.166 135.633 21.264 135.353 21.264ZM136.137 22.286V30H134.541V22.286H136.137ZM137.701 26.136C137.701 25.3427 137.859 24.6473 138.177 24.05C138.503 23.4433 138.951 22.9767 139.521 22.65C140.09 22.3233 140.743 22.16 141.481 22.16C142.414 22.16 143.184 22.384 143.791 22.832C144.407 23.2707 144.822 23.9007 145.037 24.722H143.315C143.175 24.3393 142.951 24.0407 142.643 23.826C142.335 23.6113 141.947 23.504 141.481 23.504C140.827 23.504 140.305 23.7373 139.913 24.204C139.53 24.6613 139.339 25.3053 139.339 26.136C139.339 26.9667 139.53 27.6153 139.913 28.082C140.305 28.5487 140.827 28.782 141.481 28.782C142.405 28.782 143.016 28.376 143.315 27.564H145.037C144.813 28.348 144.393 28.9733 143.777 29.44C143.161 29.8973 142.395 30.126 141.481 30.126C140.743 30.126 140.09 29.9627 139.521 29.636C138.951 29.3 138.503 28.8333 138.177 28.236C137.859 27.6293 137.701 26.9293 137.701 26.136ZM146.095 26.108C146.095 25.3333 146.254 24.6473 146.571 24.05C146.898 23.4527 147.336 22.9907 147.887 22.664C148.447 22.328 149.063 22.16 149.735 22.16C150.342 22.16 150.869 22.2813 151.317 22.524C151.774 22.7573 152.138 23.0513 152.409 23.406V22.286H154.019V30H152.409V28.852C152.138 29.216 151.77 29.5193 151.303 29.762C150.836 30.0047 150.304 30.126 149.707 30.126C149.044 30.126 148.438 29.958 147.887 29.622C147.336 29.2767 146.898 28.8007 146.571 28.194C146.254 27.578 146.095 26.8827 146.095 26.108ZM152.409 26.136C152.409 25.604 152.297 25.142 152.073 24.75C151.858 24.358 151.574 24.0593 151.219 23.854C150.864 23.6487 150.482 23.546 150.071 23.546C149.66 23.546 149.278 23.6487 148.923 23.854C148.568 24.05 148.279 24.344 148.055 24.736C147.84 25.1187 147.733 25.576 147.733 26.108C147.733 26.64 147.84 27.1067 148.055 27.508C148.279 27.9093 148.568 28.2173 148.923 28.432C149.287 28.6373 149.67 28.74 150.071 28.74C150.482 28.74 150.864 28.6373 151.219 28.432C151.574 28.2267 151.858 27.928 152.073 27.536C152.297 27.1347 152.409 26.668 152.409 26.136ZM157.977 23.588V27.858C157.977 28.1473 158.043 28.3573 158.173 28.488C158.313 28.6093 158.547 28.67 158.873 28.67H159.853V30H158.593C157.875 30 157.324 29.832 156.941 29.496C156.559 29.16 156.367 28.614 156.367 27.858V23.588H155.457V22.286H156.367V20.368H157.977V22.286H159.853V23.588H157.977ZM162.136 21.264C161.847 21.264 161.604 21.166 161.408 20.97C161.212 20.774 161.114 20.5313 161.114 20.242C161.114 19.9527 161.212 19.71 161.408 19.514C161.604 19.318 161.847 19.22 162.136 19.22C162.416 19.22 162.654 19.318 162.85 19.514C163.046 19.71 163.144 19.9527 163.144 20.242C163.144 20.5313 163.046 20.774 162.85 20.97C162.654 21.166 162.416 21.264 162.136 21.264ZM162.92 22.286V30H161.324V22.286H162.92ZM168.362 30.126C167.634 30.126 166.976 29.9627 166.388 29.636C165.8 29.3 165.338 28.8333 165.002 28.236C164.666 27.6293 164.498 26.9293 164.498 26.136C164.498 25.352 164.67 24.6567 165.016 24.05C165.361 23.4433 165.832 22.9767 166.43 22.65C167.027 22.3233 167.694 22.16 168.432 22.16C169.169 22.16 169.836 22.3233 170.434 22.65C171.031 22.9767 171.502 23.4433 171.848 24.05C172.193 24.6567 172.366 25.352 172.366 26.136C172.366 26.92 172.188 27.6153 171.834 28.222C171.479 28.8287 170.994 29.3 170.378 29.636C169.771 29.9627 169.099 30.126 168.362 30.126ZM168.362 28.74C168.772 28.74 169.155 28.642 169.51 28.446C169.874 28.25 170.168 27.956 170.392 27.564C170.616 27.172 170.728 26.696 170.728 26.136C170.728 25.576 170.62 25.1047 170.406 24.722C170.191 24.33 169.906 24.036 169.552 23.84C169.197 23.644 168.814 23.546 168.404 23.546C167.993 23.546 167.61 23.644 167.256 23.84C166.91 24.036 166.635 24.33 166.43 24.722C166.224 25.1047 166.122 25.576 166.122 26.136C166.122 26.9667 166.332 27.6107 166.752 28.068C167.181 28.516 167.718 28.74 168.362 28.74ZM177.836 22.16C178.442 22.16 178.984 22.286 179.46 22.538C179.945 22.79 180.323 23.1633 180.594 23.658C180.864 24.1527 181 24.75 181 25.45V30H179.418V25.688C179.418 24.9973 179.245 24.47 178.9 24.106C178.554 23.7327 178.083 23.546 177.486 23.546C176.888 23.546 176.412 23.7327 176.058 24.106C175.712 24.47 175.54 24.9973 175.54 25.688V30H173.944V22.286H175.54V23.168C175.801 22.8507 176.132 22.6033 176.534 22.426C176.944 22.2487 177.378 22.16 177.836 22.16Z" fill="white"/>
</svg>
