<svg width="218" height="50" viewBox="0 0 218 50" fill="none" xmlns="http://www.w3.org/2000/svg">
<rect width="218" height="50" rx="8" fill="#C40061" fill-opacity="0.18"/>
<rect x="0.5" y="0.5" width="217" height="49" rx="7.5" stroke="#FF007E" stroke-opacity="0.27"/>
<path d="M48.9106 20.27V30H47.3146V20.27H48.9106ZM54.8981 22.16C55.5047 22.16 56.0461 22.286 56.5221 22.538C57.0074 22.79 57.3854 23.1633 57.6561 23.658C57.9267 24.1527 58.0621 24.75 58.0621 25.45V30H56.4801V25.688C56.4801 24.9973 56.3074 24.47 55.9621 24.106C55.6167 23.7327 55.1454 23.546 54.5481 23.546C53.9507 23.546 53.4747 23.7327 53.1201 24.106C52.7747 24.47 52.6021 24.9973 52.6021 25.688V30H51.0061V22.286H52.6021V23.168C52.8634 22.8507 53.1947 22.6033 53.5961 22.426C54.0067 22.2487 54.4407 22.16 54.8981 22.16ZM61.9599 23.588V27.858C61.9599 28.1473 62.0252 28.3573 62.1559 28.488C62.2959 28.6093 62.5292 28.67 62.8559 28.67H63.8359V30H62.5759C61.8572 30 61.3065 29.832 60.9239 29.496C60.5412 29.16 60.3499 28.614 60.3499 27.858V23.588H59.4399V22.286H60.3499V20.368H61.9599V22.286H63.8359V23.588H61.9599ZM72.3768 25.954C72.3768 26.2433 72.3582 26.5047 72.3208 26.738H66.4268C66.4735 27.354 66.7022 27.8487 67.1128 28.222C67.5235 28.5953 68.0275 28.782 68.6248 28.782C69.4835 28.782 70.0902 28.4227 70.4448 27.704H72.1668C71.9335 28.4133 71.5088 28.9967 70.8928 29.454C70.2862 29.902 69.5302 30.126 68.6248 30.126C67.8875 30.126 67.2248 29.9627 66.6368 29.636C66.0582 29.3 65.6008 28.8333 65.2648 28.236C64.9382 27.6293 64.7748 26.9293 64.7748 26.136C64.7748 25.3427 64.9335 24.6473 65.2508 24.05C65.5775 23.4433 66.0302 22.9767 66.6088 22.65C67.1968 22.3233 67.8688 22.16 68.6248 22.16C69.3528 22.16 70.0015 22.3187 70.5708 22.636C71.1402 22.9533 71.5835 23.4013 71.9008 23.98C72.2182 24.5493 72.3768 25.2073 72.3768 25.954ZM70.7108 25.45C70.7015 24.862 70.4915 24.3907 70.0808 24.036C69.6702 23.6813 69.1615 23.504 68.5548 23.504C68.0042 23.504 67.5328 23.6813 67.1408 24.036C66.7488 24.3813 66.5155 24.8527 66.4408 25.45H70.7108ZM75.5435 19.64V30H73.9475V19.64H75.5435ZM79.2349 19.64V30H77.6389V19.64H79.2349ZM82.1423 21.264C81.8529 21.264 81.6103 21.166 81.4143 20.97C81.2183 20.774 81.1203 20.5313 81.1203 20.242C81.1203 19.9527 81.2183 19.71 81.4143 19.514C81.6103 19.318 81.8529 19.22 82.1423 19.22C82.4223 19.22 82.6603 19.318 82.8563 19.514C83.0523 19.71 83.1503 19.9527 83.1503 20.242C83.1503 20.5313 83.0523 20.774 82.8563 20.97C82.6603 21.166 82.4223 21.264 82.1423 21.264ZM82.9263 22.286V30H81.3303V22.286H82.9263ZM88.1297 22.16C88.727 22.16 89.2543 22.2813 89.7117 22.524C90.1783 22.7573 90.5423 23.0513 90.8037 23.406V22.286H92.4137V30.126C92.4137 30.8353 92.2643 31.4653 91.9657 32.016C91.667 32.576 91.233 33.0147 90.6637 33.332C90.1037 33.6493 89.4317 33.808 88.6477 33.808C87.6023 33.808 86.7343 33.5607 86.0437 33.066C85.353 32.5807 84.961 31.918 84.8677 31.078H86.4497C86.571 31.4793 86.8277 31.8013 87.2197 32.044C87.621 32.296 88.097 32.422 88.6477 32.422C89.2917 32.422 89.8097 32.226 90.2017 31.834C90.603 31.442 90.8037 30.8727 90.8037 30.126V28.838C90.533 29.202 90.1643 29.51 89.6977 29.762C89.2403 30.0047 88.7177 30.126 88.1297 30.126C87.4577 30.126 86.8417 29.958 86.2817 29.622C85.731 29.2767 85.2923 28.8007 84.9657 28.194C84.6483 27.578 84.4897 26.8827 84.4897 26.108C84.4897 25.3333 84.6483 24.6473 84.9657 24.05C85.2923 23.4527 85.731 22.9907 86.2817 22.664C86.8417 22.328 87.4577 22.16 88.1297 22.16ZM90.8037 26.136C90.8037 25.604 90.6917 25.142 90.4677 24.75C90.253 24.358 89.9683 24.0593 89.6137 23.854C89.259 23.6487 88.8763 23.546 88.4657 23.546C88.055 23.546 87.6723 23.6487 87.3177 23.854C86.963 24.05 86.6737 24.344 86.4497 24.736C86.235 25.1187 86.1277 25.576 86.1277 26.108C86.1277 26.64 86.235 27.1067 86.4497 27.508C86.6737 27.9093 86.963 28.2173 87.3177 28.432C87.6817 28.6373 88.0643 28.74 88.4657 28.74C88.8763 28.74 89.259 28.6373 89.6137 28.432C89.9683 28.2267 90.253 27.928 90.4677 27.536C90.6917 27.1347 90.8037 26.668 90.8037 26.136ZM101.58 25.954C101.58 26.2433 101.561 26.5047 101.524 26.738H95.63C95.6766 27.354 95.9053 27.8487 96.316 28.222C96.7266 28.5953 97.2306 28.782 97.828 28.782C98.6866 28.782 99.2933 28.4227 99.648 27.704H101.37C101.137 28.4133 100.712 28.9967 100.096 29.454C99.4893 29.902 98.7333 30.126 97.828 30.126C97.0906 30.126 96.428 29.9627 95.84 29.636C95.2613 29.3 94.804 28.8333 94.468 28.236C94.1413 27.6293 93.978 26.9293 93.978 26.136C93.978 25.3427 94.1366 24.6473 94.454 24.05C94.7806 23.4433 95.2333 22.9767 95.812 22.65C96.4 22.3233 97.072 22.16 97.828 22.16C98.556 22.16 99.2046 22.3187 99.774 22.636C100.343 22.9533 100.787 23.4013 101.104 23.98C101.421 24.5493 101.58 25.2073 101.58 25.954ZM99.914 25.45C99.9046 24.862 99.6946 24.3907 99.284 24.036C98.8733 23.6813 98.3646 23.504 97.758 23.504C97.2073 23.504 96.736 23.6813 96.344 24.036C95.952 24.3813 95.7186 24.8527 95.644 25.45H99.914ZM107.043 22.16C107.649 22.16 108.191 22.286 108.667 22.538C109.152 22.79 109.53 23.1633 109.801 23.658C110.071 24.1527 110.207 24.75 110.207 25.45V30H108.625V25.688C108.625 24.9973 108.452 24.47 108.107 24.106C107.761 23.7327 107.29 23.546 106.693 23.546C106.095 23.546 105.619 23.7327 105.265 24.106C104.919 24.47 104.747 24.9973 104.747 25.688V30H103.151V22.286H104.747V23.168C105.008 22.8507 105.339 22.6033 105.741 22.426C106.151 22.2487 106.585 22.16 107.043 22.16ZM111.71 26.136C111.71 25.3427 111.869 24.6473 112.186 24.05C112.513 23.4433 112.961 22.9767 113.53 22.65C114.1 22.3233 114.753 22.16 115.49 22.16C116.424 22.16 117.194 22.384 117.8 22.832C118.416 23.2707 118.832 23.9007 119.046 24.722H117.324C117.184 24.3393 116.96 24.0407 116.652 23.826C116.344 23.6113 115.957 23.504 115.49 23.504C114.837 23.504 114.314 23.7373 113.922 24.204C113.54 24.6613 113.348 25.3053 113.348 26.136C113.348 26.9667 113.54 27.6153 113.922 28.082C114.314 28.5487 114.837 28.782 115.49 28.782C116.414 28.782 117.026 28.376 117.324 27.564H119.046C118.822 28.348 118.402 28.9733 117.786 29.44C117.17 29.8973 116.405 30.126 115.49 30.126C114.753 30.126 114.1 29.9627 113.53 29.636C112.961 29.3 112.513 28.8333 112.186 28.236C111.869 27.6293 111.71 26.9293 111.71 26.136ZM127.707 25.954C127.707 26.2433 127.688 26.5047 127.651 26.738H121.757C121.804 27.354 122.032 27.8487 122.443 28.222C122.854 28.5953 123.358 28.782 123.955 28.782C124.814 28.782 125.42 28.4227 125.775 27.704H127.497C127.264 28.4133 126.839 28.9967 126.223 29.454C125.616 29.902 124.86 30.126 123.955 30.126C123.218 30.126 122.555 29.9627 121.967 29.636C121.388 29.3 120.931 28.8333 120.595 28.236C120.268 27.6293 120.105 26.9293 120.105 26.136C120.105 25.3427 120.264 24.6473 120.581 24.05C120.908 23.4433 121.36 22.9767 121.939 22.65C122.527 22.3233 123.199 22.16 123.955 22.16C124.683 22.16 125.332 22.3187 125.901 22.636C126.47 22.9533 126.914 23.4013 127.231 23.98C127.548 24.5493 127.707 25.2073 127.707 25.954ZM126.041 25.45C126.032 24.862 125.822 24.3907 125.411 24.036C125 23.6813 124.492 23.504 123.885 23.504C123.334 23.504 122.863 23.6813 122.471 24.036C122.079 24.3813 121.846 24.8527 121.771 25.45H126.041ZM134.51 28.712H137.8V30H132.914V20.27H134.51V28.712ZM138.603 26.108C138.603 25.3333 138.762 24.6473 139.079 24.05C139.406 23.4527 139.844 22.9907 140.395 22.664C140.955 22.328 141.571 22.16 142.243 22.16C142.85 22.16 143.377 22.2813 143.825 22.524C144.282 22.7573 144.646 23.0513 144.917 23.406V22.286H146.527V30H144.917V28.852C144.646 29.216 144.278 29.5193 143.811 29.762C143.344 30.0047 142.812 30.126 142.215 30.126C141.552 30.126 140.946 29.958 140.395 29.622C139.844 29.2767 139.406 28.8007 139.079 28.194C138.762 27.578 138.603 26.8827 138.603 26.108ZM144.917 26.136C144.917 25.604 144.805 25.142 144.581 24.75C144.366 24.358 144.082 24.0593 143.727 23.854C143.372 23.6487 142.99 23.546 142.579 23.546C142.168 23.546 141.786 23.6487 141.431 23.854C141.076 24.05 140.787 24.344 140.563 24.736C140.348 25.1187 140.241 25.576 140.241 26.108C140.241 26.64 140.348 27.1067 140.563 27.508C140.787 27.9093 141.076 28.2173 141.431 28.432C141.795 28.6373 142.178 28.74 142.579 28.74C142.99 28.74 143.372 28.6373 143.727 28.432C144.082 28.2267 144.366 27.928 144.581 27.536C144.805 27.1347 144.917 26.668 144.917 26.136ZM155.567 22.286L150.835 33.626H149.183L150.751 29.874L147.713 22.286H149.491L151.661 28.166L153.915 22.286H155.567ZM163.842 25.954C163.842 26.2433 163.823 26.5047 163.786 26.738H157.892C157.938 27.354 158.167 27.8487 158.578 28.222C158.988 28.5953 159.492 28.782 160.09 28.782C160.948 28.782 161.555 28.4227 161.91 27.704H163.632C163.398 28.4133 162.974 28.9967 162.358 29.454C161.751 29.902 160.995 30.126 160.09 30.126C159.352 30.126 158.69 29.9627 158.102 29.636C157.523 29.3 157.066 28.8333 156.73 28.236C156.403 27.6293 156.24 26.9293 156.24 26.136C156.24 25.3427 156.398 24.6473 156.716 24.05C157.042 23.4433 157.495 22.9767 158.074 22.65C158.662 22.3233 159.334 22.16 160.09 22.16C160.818 22.16 161.466 22.3187 162.036 22.636C162.605 22.9533 163.048 23.4013 163.366 23.98C163.683 24.5493 163.842 25.2073 163.842 25.954ZM162.176 25.45C162.166 24.862 161.956 24.3907 161.546 24.036C161.135 23.6813 160.626 23.504 160.02 23.504C159.469 23.504 158.998 23.6813 158.606 24.036C158.214 24.3813 157.98 24.8527 157.906 25.45H162.176ZM167.008 23.406C167.242 23.014 167.55 22.7107 167.932 22.496C168.324 22.272 168.786 22.16 169.318 22.16V23.812H168.912C168.287 23.812 167.811 23.9707 167.484 24.288C167.167 24.6053 167.008 25.156 167.008 25.94V30H165.412V22.286H167.008V23.406Z" fill="white"/>
</svg>
