<svg width="197" height="50" viewBox="0 0 197 50" fill="none" xmlns="http://www.w3.org/2000/svg">
<rect x="-21" width="218" height="50" rx="8" fill="#C40061" fill-opacity="0.18"/>
<rect x="-20.5" y="0.5" width="217" height="49" rx="7.5" stroke="#FF007E" stroke-opacity="0.27"/>
<path d="M28.7482 30.098C28.0949 30.098 27.5069 29.986 26.9842 29.762C26.4615 29.5287 26.0509 29.202 25.7522 28.782C25.4535 28.362 25.3042 27.872 25.3042 27.312H27.0122C27.0495 27.732 27.2129 28.0773 27.5022 28.348C27.8009 28.6187 28.2162 28.754 28.7482 28.754C29.2989 28.754 29.7282 28.6233 30.0362 28.362C30.3442 28.0913 30.4982 27.746 30.4982 27.326C30.4982 26.9993 30.4002 26.7333 30.2042 26.528C30.0175 26.3227 29.7795 26.164 29.4902 26.052C29.2102 25.94 28.8182 25.8187 28.3142 25.688C27.6795 25.52 27.1615 25.352 26.7602 25.184C26.3682 25.0067 26.0322 24.736 25.7522 24.372C25.4722 24.008 25.3322 23.5227 25.3322 22.916C25.3322 22.356 25.4722 21.866 25.7522 21.446C26.0322 21.026 26.4242 20.704 26.9282 20.48C27.4322 20.256 28.0155 20.144 28.6782 20.144C29.6209 20.144 30.3909 20.382 30.9882 20.858C31.5949 21.3247 31.9309 21.9687 31.9962 22.79H30.2322C30.2042 22.4353 30.0362 22.132 29.7282 21.88C29.4202 21.628 29.0142 21.502 28.5102 21.502C28.0529 21.502 27.6795 21.6187 27.3902 21.852C27.1009 22.0853 26.9562 22.4213 26.9562 22.86C26.9562 23.1587 27.0449 23.406 27.2222 23.602C27.4089 23.7887 27.6422 23.938 27.9222 24.05C28.2022 24.162 28.5849 24.2833 29.0702 24.414C29.7142 24.5913 30.2369 24.7687 30.6382 24.946C31.0489 25.1233 31.3942 25.3987 31.6742 25.772C31.9635 26.136 32.1082 26.626 32.1082 27.242C32.1082 27.7367 31.9729 28.2033 31.7022 28.642C31.4409 29.0807 31.0535 29.4353 30.5402 29.706C30.0362 29.9673 29.4389 30.098 28.7482 30.098ZM43.3294 22.16C43.9361 22.16 44.4774 22.286 44.9534 22.538C45.4387 22.79 45.8167 23.1633 46.0874 23.658C46.3674 24.1527 46.5074 24.75 46.5074 25.45V30H44.9254V25.688C44.9254 24.9973 44.7527 24.47 44.4074 24.106C44.0621 23.7327 43.5907 23.546 42.9934 23.546C42.3961 23.546 41.9201 23.7327 41.5654 24.106C41.2201 24.47 41.0474 24.9973 41.0474 25.688V30H39.4654V25.688C39.4654 24.9973 39.2927 24.47 38.9474 24.106C38.6021 23.7327 38.1307 23.546 37.5334 23.546C36.9361 23.546 36.4601 23.7327 36.1054 24.106C35.7601 24.47 35.5874 24.9973 35.5874 25.688V30H33.9914V22.286H35.5874V23.168C35.8487 22.8507 36.1801 22.6033 36.5814 22.426C36.9827 22.2487 37.4121 22.16 37.8694 22.16C38.4854 22.16 39.0361 22.2907 39.5214 22.552C40.0067 22.8133 40.3801 23.1913 40.6414 23.686C40.8747 23.2193 41.2387 22.8507 41.7334 22.58C42.2281 22.3 42.7601 22.16 43.3294 22.16ZM48.0063 26.108C48.0063 25.3333 48.1649 24.6473 48.4823 24.05C48.8089 23.4527 49.2476 22.9907 49.7983 22.664C50.3583 22.328 50.9743 22.16 51.6463 22.16C52.2529 22.16 52.7803 22.2813 53.2283 22.524C53.6856 22.7573 54.0496 23.0513 54.3203 23.406V22.286H55.9303V30H54.3203V28.852C54.0496 29.216 53.6809 29.5193 53.2143 29.762C52.7476 30.0047 52.2156 30.126 51.6183 30.126C50.9556 30.126 50.3489 29.958 49.7983 29.622C49.2476 29.2767 48.8089 28.8007 48.4823 28.194C48.1649 27.578 48.0063 26.8827 48.0063 26.108ZM54.3203 26.136C54.3203 25.604 54.2083 25.142 53.9843 24.75C53.7696 24.358 53.4849 24.0593 53.1303 23.854C52.7756 23.6487 52.3929 23.546 51.9823 23.546C51.5716 23.546 51.1889 23.6487 50.8343 23.854C50.4796 24.05 50.1903 24.344 49.9663 24.736C49.7516 25.1187 49.6443 25.576 49.6443 26.108C49.6443 26.64 49.7516 27.1067 49.9663 27.508C50.1903 27.9093 50.4796 28.2173 50.8343 28.432C51.1983 28.6373 51.5809 28.74 51.9823 28.74C52.3929 28.74 52.7756 28.6373 53.1303 28.432C53.4849 28.2267 53.7696 27.928 53.9843 27.536C54.2083 27.1347 54.3203 26.668 54.3203 26.136ZM59.6226 23.406C59.8559 23.014 60.1639 22.7107 60.5466 22.496C60.9386 22.272 61.4006 22.16 61.9326 22.16V23.812H61.5266C60.9012 23.812 60.4252 23.9707 60.0986 24.288C59.7812 24.6053 59.6226 25.156 59.6226 25.94V30H58.0266V22.286H59.6226V23.406ZM65.2616 23.588V27.858C65.2616 28.1473 65.3269 28.3573 65.4576 28.488C65.5976 28.6093 65.8309 28.67 66.1576 28.67H67.1376V30H65.8776C65.1589 30 64.6083 29.832 64.2256 29.496C63.8429 29.16 63.6516 28.614 63.6516 27.858V23.588H62.7416V22.286H63.6516V20.368H65.2616V22.286H67.1376V23.588H65.2616ZM71.7133 26.108C71.7133 25.3333 71.872 24.6473 72.1893 24.05C72.516 23.4527 72.9546 22.9907 73.5053 22.664C74.0653 22.328 74.686 22.16 75.3673 22.16C75.8713 22.16 76.366 22.272 76.8513 22.496C77.346 22.7107 77.738 23 78.0273 23.364V19.64H79.6373V30H78.0273V28.838C77.766 29.2113 77.402 29.5193 76.9353 29.762C76.478 30.0047 75.9506 30.126 75.3533 30.126C74.6813 30.126 74.0653 29.958 73.5053 29.622C72.9546 29.2767 72.516 28.8007 72.1893 28.194C71.872 27.578 71.7133 26.8827 71.7133 26.108ZM78.0273 26.136C78.0273 25.604 77.9153 25.142 77.6913 24.75C77.4766 24.358 77.192 24.0593 76.8373 23.854C76.4826 23.6487 76.1 23.546 75.6893 23.546C75.2786 23.546 74.896 23.6487 74.5413 23.854C74.1866 24.05 73.8973 24.344 73.6733 24.736C73.4586 25.1187 73.3513 25.576 73.3513 26.108C73.3513 26.64 73.4586 27.1067 73.6733 27.508C73.8973 27.9093 74.1866 28.2173 74.5413 28.432C74.9053 28.6373 75.288 28.74 75.6893 28.74C76.1 28.74 76.4826 28.6373 76.8373 28.432C77.192 28.2267 77.4766 27.928 77.6913 27.536C77.9153 27.1347 78.0273 26.668 78.0273 26.136ZM81.2016 26.108C81.2016 25.3333 81.3603 24.6473 81.6776 24.05C82.0043 23.4527 82.4429 22.9907 82.9936 22.664C83.5536 22.328 84.1696 22.16 84.8416 22.16C85.4483 22.16 85.9756 22.2813 86.4236 22.524C86.8809 22.7573 87.2449 23.0513 87.5156 23.406V22.286H89.1256V30H87.5156V28.852C87.2449 29.216 86.8763 29.5193 86.4096 29.762C85.9429 30.0047 85.4109 30.126 84.8136 30.126C84.1509 30.126 83.5443 29.958 82.9936 29.622C82.4429 29.2767 82.0043 28.8007 81.6776 28.194C81.3603 27.578 81.2016 26.8827 81.2016 26.108ZM87.5156 26.136C87.5156 25.604 87.4036 25.142 87.1796 24.75C86.9649 24.358 86.6803 24.0593 86.3256 23.854C85.9709 23.6487 85.5883 23.546 85.1776 23.546C84.7669 23.546 84.3843 23.6487 84.0296 23.854C83.6749 24.05 83.3856 24.344 83.1616 24.736C82.9469 25.1187 82.8396 25.576 82.8396 26.108C82.8396 26.64 82.9469 27.1067 83.1616 27.508C83.3856 27.9093 83.6749 28.2173 84.0296 28.432C84.3936 28.6373 84.7763 28.74 85.1776 28.74C85.5883 28.74 85.9709 28.6373 86.3256 28.432C86.6803 28.2267 86.9649 27.928 87.1796 27.536C87.4036 27.1347 87.5156 26.668 87.5156 26.136ZM94.0219 30.126C93.4152 30.126 92.8692 30.0187 92.3839 29.804C91.9079 29.58 91.5299 29.2813 91.2499 28.908C90.9699 28.5253 90.8205 28.1007 90.8019 27.634H92.4539C92.4819 27.9607 92.6359 28.236 92.9159 28.46C93.2052 28.6747 93.5645 28.782 93.9939 28.782C94.4419 28.782 94.7872 28.698 95.0299 28.53C95.2819 28.3527 95.4079 28.1287 95.4079 27.858C95.4079 27.5687 95.2679 27.354 94.9879 27.214C94.7172 27.074 94.2832 26.92 93.6859 26.752C93.1072 26.5933 92.6359 26.4393 92.2719 26.29C91.9079 26.1407 91.5905 25.912 91.3199 25.604C91.0585 25.296 90.9279 24.89 90.9279 24.386C90.9279 23.9753 91.0492 23.602 91.2919 23.266C91.5345 22.9207 91.8799 22.65 92.3279 22.454C92.7852 22.258 93.3079 22.16 93.8959 22.16C94.7732 22.16 95.4779 22.384 96.0099 22.832C96.5512 23.2707 96.8405 23.8727 96.8779 24.638H95.2819C95.2539 24.2927 95.1139 24.0173 94.8619 23.812C94.6099 23.6067 94.2692 23.504 93.8399 23.504C93.4199 23.504 93.0979 23.5833 92.8739 23.742C92.6499 23.9007 92.5379 24.1107 92.5379 24.372C92.5379 24.5773 92.6125 24.75 92.7619 24.89C92.9112 25.03 93.0932 25.142 93.3079 25.226C93.5225 25.3007 93.8399 25.3987 94.2599 25.52C94.8199 25.6693 95.2772 25.8233 95.6319 25.982C95.9959 26.1313 96.3085 26.3553 96.5699 26.654C96.8312 26.9527 96.9665 27.3493 96.9759 27.844C96.9759 28.2827 96.8545 28.6747 96.6119 29.02C96.3692 29.3653 96.0239 29.636 95.5759 29.832C95.1372 30.028 94.6192 30.126 94.0219 30.126ZM102.69 22.16C103.278 22.16 103.801 22.286 104.258 22.538C104.725 22.79 105.089 23.1633 105.35 23.658C105.621 24.1527 105.756 24.75 105.756 25.45V30H104.174V25.688C104.174 24.9973 104.002 24.47 103.656 24.106C103.311 23.7327 102.84 23.546 102.242 23.546C101.645 23.546 101.169 23.7327 100.814 24.106C100.469 24.47 100.296 24.9973 100.296 25.688V30H98.7004V19.64H100.296V23.182C100.567 22.8553 100.908 22.6033 101.318 22.426C101.738 22.2487 102.196 22.16 102.69 22.16ZM109.388 23.434C109.659 23.0607 110.028 22.7573 110.494 22.524C110.97 22.2813 111.498 22.16 112.076 22.16C112.758 22.16 113.374 22.3233 113.924 22.65C114.475 22.9767 114.909 23.4433 115.226 24.05C115.544 24.6473 115.702 25.3333 115.702 26.108C115.702 26.8827 115.544 27.578 115.226 28.194C114.909 28.8007 114.47 29.2767 113.91 29.622C113.36 29.958 112.748 30.126 112.076 30.126C111.479 30.126 110.947 30.0093 110.48 29.776C110.023 29.5427 109.659 29.244 109.388 28.88V30H107.792V19.64H109.388V23.434ZM114.078 26.108C114.078 25.576 113.966 25.1187 113.742 24.736C113.528 24.344 113.238 24.05 112.874 23.854C112.52 23.6487 112.137 23.546 111.726 23.546C111.325 23.546 110.942 23.6487 110.578 23.854C110.224 24.0593 109.934 24.358 109.71 24.75C109.496 25.142 109.388 25.604 109.388 26.136C109.388 26.668 109.496 27.1347 109.71 27.536C109.934 27.928 110.224 28.2267 110.578 28.432C110.942 28.6373 111.325 28.74 111.726 28.74C112.137 28.74 112.52 28.6373 112.874 28.432C113.238 28.2173 113.528 27.9093 113.742 27.508C113.966 27.1067 114.078 26.64 114.078 26.108ZM120.626 30.126C119.898 30.126 119.24 29.9627 118.652 29.636C118.064 29.3 117.602 28.8333 117.266 28.236C116.93 27.6293 116.762 26.9293 116.762 26.136C116.762 25.352 116.935 24.6567 117.28 24.05C117.626 23.4433 118.097 22.9767 118.694 22.65C119.292 22.3233 119.959 22.16 120.696 22.16C121.434 22.16 122.101 22.3233 122.698 22.65C123.296 22.9767 123.767 23.4433 124.112 24.05C124.458 24.6567 124.63 25.352 124.63 26.136C124.63 26.92 124.453 27.6153 124.098 28.222C123.744 28.8287 123.258 29.3 122.642 29.636C122.036 29.9627 121.364 30.126 120.626 30.126ZM120.626 28.74C121.037 28.74 121.42 28.642 121.774 28.446C122.138 28.25 122.432 27.956 122.656 27.564C122.88 27.172 122.992 26.696 122.992 26.136C122.992 25.576 122.885 25.1047 122.67 24.722C122.456 24.33 122.171 24.036 121.816 23.84C121.462 23.644 121.079 23.546 120.668 23.546C120.258 23.546 119.875 23.644 119.52 23.84C119.175 24.036 118.9 24.33 118.694 24.722C118.489 25.1047 118.386 25.576 118.386 26.136C118.386 26.9667 118.596 27.6107 119.016 28.068C119.446 28.516 119.982 28.74 120.626 28.74ZM125.676 26.108C125.676 25.3333 125.835 24.6473 126.152 24.05C126.479 23.4527 126.918 22.9907 127.468 22.664C128.028 22.328 128.644 22.16 129.316 22.16C129.923 22.16 130.45 22.2813 130.898 22.524C131.356 22.7573 131.72 23.0513 131.99 23.406V22.286H133.6V30H131.99V28.852C131.72 29.216 131.351 29.5193 130.884 29.762C130.418 30.0047 129.886 30.126 129.288 30.126C128.626 30.126 128.019 29.958 127.468 29.622C126.918 29.2767 126.479 28.8007 126.152 28.194C125.835 27.578 125.676 26.8827 125.676 26.108ZM131.99 26.136C131.99 25.604 131.878 25.142 131.654 24.75C131.44 24.358 131.155 24.0593 130.8 23.854C130.446 23.6487 130.063 23.546 129.652 23.546C129.242 23.546 128.859 23.6487 128.504 23.854C128.15 24.05 127.86 24.344 127.636 24.736C127.422 25.1187 127.314 25.576 127.314 26.108C127.314 26.64 127.422 27.1067 127.636 27.508C127.86 27.9093 128.15 28.2173 128.504 28.432C128.868 28.6373 129.251 28.74 129.652 28.74C130.063 28.74 130.446 28.6373 130.8 28.432C131.155 28.2267 131.44 27.928 131.654 27.536C131.878 27.1347 131.99 26.668 131.99 26.136ZM137.292 23.406C137.526 23.014 137.834 22.7107 138.216 22.496C138.608 22.272 139.07 22.16 139.602 22.16V23.812H139.196C138.571 23.812 138.095 23.9707 137.768 24.288C137.451 24.6053 137.292 25.156 137.292 25.94V30H135.696V22.286H137.292V23.406ZM140.538 26.108C140.538 25.3333 140.696 24.6473 141.014 24.05C141.34 23.4527 141.779 22.9907 142.33 22.664C142.89 22.328 143.51 22.16 144.192 22.16C144.696 22.16 145.19 22.272 145.676 22.496C146.17 22.7107 146.562 23 146.852 23.364V19.64H148.462V30H146.852V28.838C146.59 29.2113 146.226 29.5193 145.76 29.762C145.302 30.0047 144.775 30.126 144.178 30.126C143.506 30.126 142.89 29.958 142.33 29.622C141.779 29.2767 141.34 28.8007 141.014 28.194C140.696 27.578 140.538 26.8827 140.538 26.108ZM146.852 26.136C146.852 25.604 146.74 25.142 146.516 24.75C146.301 24.358 146.016 24.0593 145.662 23.854C145.307 23.6487 144.924 23.546 144.514 23.546C144.103 23.546 143.72 23.6487 143.366 23.854C143.011 24.05 142.722 24.344 142.498 24.736C142.283 25.1187 142.176 25.576 142.176 26.108C142.176 26.64 142.283 27.1067 142.498 27.508C142.722 27.9093 143.011 28.2173 143.366 28.432C143.73 28.6373 144.112 28.74 144.514 28.74C144.924 28.74 145.307 28.6373 145.662 28.432C146.016 28.2267 146.301 27.928 146.516 27.536C146.74 27.1347 146.852 26.668 146.852 26.136Z" fill="white"/>
</svg>
