<svg width="193" height="50" viewBox="0 0 193 50" fill="none" xmlns="http://www.w3.org/2000/svg">
<rect width="218" height="50" rx="8" fill="#C40061" fill-opacity="0.18"/>
<rect x="0.5" y="0.5" width="217" height="49" rx="7.5" stroke="#FF007E" stroke-opacity="0.27"/>
<path d="M52.3618 30L50.1218 26.108H48.9038V30H47.3078V20.27H50.6678C51.4145 20.27 52.0445 20.4007 52.5578 20.662C53.0805 20.9233 53.4678 21.2733 53.7198 21.712C53.9811 22.1507 54.1118 22.6407 54.1118 23.182C54.1118 23.8167 53.9251 24.3953 53.5518 24.918C53.1878 25.4313 52.6231 25.7813 51.8578 25.968L54.2658 30H52.3618ZM48.9038 24.834H50.6678C51.2651 24.834 51.7131 24.6847 52.0118 24.386C52.3198 24.0873 52.4738 23.686 52.4738 23.182C52.4738 22.678 52.3245 22.286 52.0258 22.006C51.7271 21.7167 51.2745 21.572 50.6678 21.572H48.9038V24.834ZM63.2235 25.954C63.2235 26.2433 63.2048 26.5047 63.1675 26.738H57.2735C57.3202 27.354 57.5488 27.8487 57.9595 28.222C58.3702 28.5953 58.8742 28.782 59.4715 28.782C60.3302 28.782 60.9368 28.4227 61.2915 27.704H63.0135C62.7802 28.4133 62.3555 28.9967 61.7395 29.454C61.1328 29.902 60.3768 30.126 59.4715 30.126C58.7342 30.126 58.0715 29.9627 57.4835 29.636C56.9048 29.3 56.4475 28.8333 56.1115 28.236C55.7848 27.6293 55.6215 26.9293 55.6215 26.136C55.6215 25.3427 55.7802 24.6473 56.0975 24.05C56.4242 23.4433 56.8768 22.9767 57.4555 22.65C58.0435 22.3233 58.7155 22.16 59.4715 22.16C60.1995 22.16 60.8482 22.3187 61.4175 22.636C61.9868 22.9533 62.4302 23.4013 62.7475 23.98C63.0648 24.5493 63.2235 25.2073 63.2235 25.954ZM61.5575 25.45C61.5482 24.862 61.3382 24.3907 60.9275 24.036C60.5168 23.6813 60.0082 23.504 59.4015 23.504C58.8508 23.504 58.3795 23.6813 57.9875 24.036C57.5955 24.3813 57.3622 24.8527 57.2875 25.45H61.5575ZM67.7761 28.572L69.9601 22.286H71.6541L68.7141 30H66.8101L63.8841 22.286H65.5921L67.7761 28.572ZM79.9305 25.954C79.9305 26.2433 79.9119 26.5047 79.8745 26.738H73.9805C74.0272 27.354 74.2559 27.8487 74.6665 28.222C75.0772 28.5953 75.5812 28.782 76.1785 28.782C77.0372 28.782 77.6439 28.4227 77.9985 27.704H79.7205C79.4872 28.4133 79.0625 28.9967 78.4465 29.454C77.8399 29.902 77.0839 30.126 76.1785 30.126C75.4412 30.126 74.7785 29.9627 74.1905 29.636C73.6119 29.3 73.1545 28.8333 72.8185 28.236C72.4919 27.6293 72.3285 26.9293 72.3285 26.136C72.3285 25.3427 72.4872 24.6473 72.8045 24.05C73.1312 23.4433 73.5839 22.9767 74.1625 22.65C74.7505 22.3233 75.4225 22.16 76.1785 22.16C76.9065 22.16 77.5552 22.3187 78.1245 22.636C78.6939 22.9533 79.1372 23.4013 79.4545 23.98C79.7719 24.5493 79.9305 25.2073 79.9305 25.954ZM78.2645 25.45C78.2552 24.862 78.0452 24.3907 77.6345 24.036C77.2239 23.6813 76.7152 23.504 76.1085 23.504C75.5579 23.504 75.0865 23.6813 74.6945 24.036C74.3025 24.3813 74.0692 24.8527 73.9945 25.45H78.2645ZM85.3932 22.16C85.9998 22.16 86.5412 22.286 87.0172 22.538C87.5025 22.79 87.8805 23.1633 88.1512 23.658C88.4218 24.1527 88.5572 24.75 88.5572 25.45V30H86.9752V25.688C86.9752 24.9973 86.8025 24.47 86.4572 24.106C86.1118 23.7327 85.6405 23.546 85.0432 23.546C84.4458 23.546 83.9698 23.7327 83.6152 24.106C83.2698 24.47 83.0972 24.9973 83.0972 25.688V30H81.5012V22.286H83.0972V23.168C83.3585 22.8507 83.6898 22.6033 84.0912 22.426C84.5018 22.2487 84.9358 22.16 85.3932 22.16ZM97.579 22.286V30H95.983V29.09C95.731 29.4073 95.3996 29.6593 94.989 29.846C94.5876 30.0233 94.1583 30.112 93.701 30.112C93.0943 30.112 92.5483 29.986 92.063 29.734C91.587 29.482 91.209 29.1087 90.929 28.614C90.6583 28.1193 90.523 27.522 90.523 26.822V22.286H92.105V26.584C92.105 27.2747 92.2776 27.8067 92.623 28.18C92.9683 28.544 93.4396 28.726 94.037 28.726C94.6343 28.726 95.1056 28.544 95.451 28.18C95.8056 27.8067 95.983 27.2747 95.983 26.584V22.286H97.579ZM106.755 25.954C106.755 26.2433 106.736 26.5047 106.699 26.738H100.805C100.851 27.354 101.08 27.8487 101.491 28.222C101.901 28.5953 102.405 28.782 103.003 28.782C103.861 28.782 104.468 28.4227 104.823 27.704H106.545C106.311 28.4133 105.887 28.9967 105.271 29.454C104.664 29.902 103.908 30.126 103.003 30.126C102.265 30.126 101.603 29.9627 101.015 29.636C100.436 29.3 99.9788 28.8333 99.6428 28.236C99.3161 27.6293 99.1528 26.9293 99.1528 26.136C99.1528 25.3427 99.3114 24.6473 99.6288 24.05C99.9554 23.4433 100.408 22.9767 100.987 22.65C101.575 22.3233 102.247 22.16 103.003 22.16C103.731 22.16 104.379 22.3187 104.949 22.636C105.518 22.9533 105.961 23.4013 106.279 23.98C106.596 24.5493 106.755 25.2073 106.755 25.954ZM105.089 25.45C105.079 24.862 104.869 24.3907 104.459 24.036C104.048 23.6813 103.539 23.504 102.933 23.504C102.382 23.504 101.911 23.6813 101.519 24.036C101.127 24.3813 100.893 24.8527 100.819 25.45H105.089ZM117.828 28.012H113.754L113.054 30H111.388L114.874 20.256H116.722L120.208 30H118.528L117.828 28.012ZM117.38 26.71L115.798 22.188L114.202 26.71H117.38ZM125.616 22.16C126.222 22.16 126.764 22.286 127.24 22.538C127.725 22.79 128.103 23.1633 128.374 23.658C128.644 24.1527 128.78 24.75 128.78 25.45V30H127.198V25.688C127.198 24.9973 127.025 24.47 126.68 24.106C126.334 23.7327 125.863 23.546 125.266 23.546C124.668 23.546 124.192 23.7327 123.838 24.106C123.492 24.47 123.32 24.9973 123.32 25.688V30H121.724V22.286H123.32V23.168C123.581 22.8507 123.912 22.6033 124.314 22.426C124.724 22.2487 125.158 22.16 125.616 22.16ZM130.284 26.108C130.284 25.3333 130.442 24.6473 130.76 24.05C131.086 23.4527 131.525 22.9907 132.076 22.664C132.636 22.328 133.252 22.16 133.924 22.16C134.53 22.16 135.058 22.2813 135.506 22.524C135.963 22.7573 136.327 23.0513 136.598 23.406V22.286H138.208V30H136.598V28.852C136.327 29.216 135.958 29.5193 135.492 29.762C135.025 30.0047 134.493 30.126 133.896 30.126C133.233 30.126 132.626 29.958 132.076 29.622C131.525 29.2767 131.086 28.8007 130.76 28.194C130.442 27.578 130.284 26.8827 130.284 26.108ZM136.598 26.136C136.598 25.604 136.486 25.142 136.262 24.75C136.047 24.358 135.762 24.0593 135.408 23.854C135.053 23.6487 134.67 23.546 134.26 23.546C133.849 23.546 133.466 23.6487 133.112 23.854C132.757 24.05 132.468 24.344 132.244 24.736C132.029 25.1187 131.922 25.576 131.922 26.108C131.922 26.64 132.029 27.1067 132.244 27.508C132.468 27.9093 132.757 28.2173 133.112 28.432C133.476 28.6373 133.858 28.74 134.26 28.74C134.67 28.74 135.053 28.6373 135.408 28.432C135.762 28.2267 136.047 27.928 136.262 27.536C136.486 27.1347 136.598 26.668 136.598 26.136ZM141.9 19.64V30H140.304V19.64H141.9ZM150.939 22.286L146.207 33.626H144.555L146.123 29.874L143.085 22.286H144.863L147.033 28.166L149.287 22.286H150.939ZM154.944 30.126C154.337 30.126 153.791 30.0187 153.306 29.804C152.83 29.58 152.452 29.2813 152.172 28.908C151.892 28.5253 151.742 28.1007 151.724 27.634H153.376C153.404 27.9607 153.558 28.236 153.838 28.46C154.127 28.6747 154.486 28.782 154.916 28.782C155.364 28.782 155.709 28.698 155.952 28.53C156.204 28.3527 156.33 28.1287 156.33 27.858C156.33 27.5687 156.19 27.354 155.91 27.214C155.639 27.074 155.205 26.92 154.608 26.752C154.029 26.5933 153.558 26.4393 153.194 26.29C152.83 26.1407 152.512 25.912 152.242 25.604C151.98 25.296 151.85 24.89 151.85 24.386C151.85 23.9753 151.971 23.602 152.214 23.266C152.456 22.9207 152.802 22.65 153.25 22.454C153.707 22.258 154.23 22.16 154.818 22.16C155.695 22.16 156.4 22.384 156.932 22.832C157.473 23.2707 157.762 23.8727 157.8 24.638H156.204C156.176 24.2927 156.036 24.0173 155.784 23.812C155.532 23.6067 155.191 23.504 154.762 23.504C154.342 23.504 154.02 23.5833 153.796 23.742C153.572 23.9007 153.46 24.1107 153.46 24.372C153.46 24.5773 153.534 24.75 153.684 24.89C153.833 25.03 154.015 25.142 154.23 25.226C154.444 25.3007 154.762 25.3987 155.182 25.52C155.742 25.6693 156.199 25.8233 156.554 25.982C156.918 26.1313 157.23 26.3553 157.492 26.654C157.753 26.9527 157.888 27.3493 157.898 27.844C157.898 28.2827 157.776 28.6747 157.534 29.02C157.291 29.3653 156.946 29.636 156.498 29.832C156.059 30.028 155.541 30.126 154.944 30.126ZM160.434 21.264C160.145 21.264 159.902 21.166 159.706 20.97C159.51 20.774 159.412 20.5313 159.412 20.242C159.412 19.9527 159.51 19.71 159.706 19.514C159.902 19.318 160.145 19.22 160.434 19.22C160.714 19.22 160.952 19.318 161.148 19.514C161.344 19.71 161.442 19.9527 161.442 20.242C161.442 20.5313 161.344 20.774 161.148 20.97C160.952 21.166 160.714 21.264 160.434 21.264ZM161.218 22.286V30H159.622V22.286H161.218ZM166.114 30.126C165.507 30.126 164.961 30.0187 164.476 29.804C164 29.58 163.622 29.2813 163.342 28.908C163.062 28.5253 162.912 28.1007 162.894 27.634H164.546C164.574 27.9607 164.728 28.236 165.008 28.46C165.297 28.6747 165.656 28.782 166.086 28.782C166.534 28.782 166.879 28.698 167.122 28.53C167.374 28.3527 167.5 28.1287 167.5 27.858C167.5 27.5687 167.36 27.354 167.08 27.214C166.809 27.074 166.375 26.92 165.778 26.752C165.199 26.5933 164.728 26.4393 164.364 26.29C164 26.1407 163.682 25.912 163.412 25.604C163.15 25.296 163.02 24.89 163.02 24.386C163.02 23.9753 163.141 23.602 163.384 23.266C163.626 22.9207 163.972 22.65 164.42 22.454C164.877 22.258 165.4 22.16 165.988 22.16C166.865 22.16 167.57 22.384 168.102 22.832C168.643 23.2707 168.932 23.8727 168.97 24.638H167.374C167.346 24.2927 167.206 24.0173 166.954 23.812C166.702 23.6067 166.361 23.504 165.932 23.504C165.512 23.504 165.19 23.5833 164.966 23.742C164.742 23.9007 164.63 24.1107 164.63 24.372C164.63 24.5773 164.704 24.75 164.854 24.89C165.003 25.03 165.185 25.142 165.4 25.226C165.614 25.3007 165.932 25.3987 166.352 25.52C166.912 25.6693 167.369 25.8233 167.724 25.982C168.088 26.1313 168.4 26.3553 168.662 26.654C168.923 26.9527 169.058 27.3493 169.068 27.844C169.068 28.2827 168.946 28.6747 168.704 29.02C168.461 29.3653 168.116 29.636 167.668 29.832C167.229 30.028 166.711 30.126 166.114 30.126Z" fill="white"/>
</svg>
