<svg width="218" height="50" viewBox="0 0 218 50" fill="none" xmlns="http://www.w3.org/2000/svg">
<rect width="218" height="50" rx="8" fill="#C40061" fill-opacity="0.18"/>
<rect x="0.5" y="0.5" width="217" height="49" rx="7.5" stroke="#FF007E" stroke-opacity="0.27"/>
<path d="M14.1167 20.27V30H12.5207V20.27H14.1167ZM20.1041 22.16C20.7108 22.16 21.2521 22.286 21.7281 22.538C22.2134 22.79 22.5914 23.1633 22.8621 23.658C23.1328 24.1527 23.2681 24.75 23.2681 25.45V30H21.6861V25.688C21.6861 24.9973 21.5134 24.47 21.1681 24.106C20.8228 23.7327 20.3514 23.546 19.7541 23.546C19.1568 23.546 18.6808 23.7327 18.3261 24.106C17.9808 24.47 17.8081 24.9973 17.8081 25.688V30H16.2121V22.286H17.8081V23.168C18.0694 22.8507 18.4008 22.6033 18.8021 22.426C19.2128 22.2487 19.6468 22.16 20.1041 22.16ZM27.1659 23.588V27.858C27.1659 28.1473 27.2312 28.3573 27.3619 28.488C27.5019 28.6093 27.7352 28.67 28.0619 28.67H29.0419V30H27.7819C27.0632 30 26.5126 29.832 26.1299 29.496C25.7472 29.16 25.5559 28.614 25.5559 27.858V23.588H24.6459V22.286H25.5559V20.368H27.1659V22.286H29.0419V23.588H27.1659ZM37.5829 25.954C37.5829 26.2433 37.5642 26.5047 37.5269 26.738H31.6329C31.6796 27.354 31.9082 27.8487 32.3189 28.222C32.7296 28.5953 33.2336 28.782 33.8309 28.782C34.6896 28.782 35.2962 28.4227 35.6509 27.704H37.3729C37.1396 28.4133 36.7149 28.9967 36.0989 29.454C35.4922 29.902 34.7362 30.126 33.8309 30.126C33.0936 30.126 32.4309 29.9627 31.8429 29.636C31.2642 29.3 30.8069 28.8333 30.4709 28.236C30.1442 27.6293 29.9809 26.9293 29.9809 26.136C29.9809 25.3427 30.1396 24.6473 30.4569 24.05C30.7836 23.4433 31.2362 22.9767 31.8149 22.65C32.4029 22.3233 33.0749 22.16 33.8309 22.16C34.5589 22.16 35.2076 22.3187 35.7769 22.636C36.3462 22.9533 36.7896 23.4013 37.1069 23.98C37.4242 24.5493 37.5829 25.2073 37.5829 25.954ZM35.9169 25.45C35.9076 24.862 35.6976 24.3907 35.2869 24.036C34.8762 23.6813 34.3676 23.504 33.7609 23.504C33.2102 23.504 32.7389 23.6813 32.3469 24.036C31.9549 24.3813 31.7216 24.8527 31.6469 25.45H35.9169ZM40.7495 19.64V30H39.1535V19.64H40.7495ZM44.4409 19.64V30H42.8449V19.64H44.4409ZM47.3483 21.264C47.059 21.264 46.8163 21.166 46.6203 20.97C46.4243 20.774 46.3263 20.5313 46.3263 20.242C46.3263 19.9527 46.4243 19.71 46.6203 19.514C46.8163 19.318 47.059 19.22 47.3483 19.22C47.6283 19.22 47.8663 19.318 48.0623 19.514C48.2583 19.71 48.3563 19.9527 48.3563 20.242C48.3563 20.5313 48.2583 20.774 48.0623 20.97C47.8663 21.166 47.6283 21.264 47.3483 21.264ZM48.1323 22.286V30H46.5363V22.286H48.1323ZM53.3357 22.16C53.9331 22.16 54.4604 22.2813 54.9177 22.524C55.3844 22.7573 55.7484 23.0513 56.0097 23.406V22.286H57.6197V30.126C57.6197 30.8353 57.4704 31.4653 57.1717 32.016C56.8731 32.576 56.4391 33.0147 55.8697 33.332C55.3097 33.6493 54.6377 33.808 53.8537 33.808C52.8084 33.808 51.9404 33.5607 51.2497 33.066C50.5591 32.5807 50.1671 31.918 50.0737 31.078H51.6557C51.7771 31.4793 52.0337 31.8013 52.4257 32.044C52.8271 32.296 53.3031 32.422 53.8537 32.422C54.4977 32.422 55.0157 32.226 55.4077 31.834C55.8091 31.442 56.0097 30.8727 56.0097 30.126V28.838C55.7391 29.202 55.3704 29.51 54.9037 29.762C54.4464 30.0047 53.9237 30.126 53.3357 30.126C52.6637 30.126 52.0477 29.958 51.4877 29.622C50.9371 29.2767 50.4984 28.8007 50.1717 28.194C49.8544 27.578 49.6957 26.8827 49.6957 26.108C49.6957 25.3333 49.8544 24.6473 50.1717 24.05C50.4984 23.4527 50.9371 22.9907 51.4877 22.664C52.0477 22.328 52.6637 22.16 53.3357 22.16ZM56.0097 26.136C56.0097 25.604 55.8977 25.142 55.6737 24.75C55.4591 24.358 55.1744 24.0593 54.8197 23.854C54.4651 23.6487 54.0824 23.546 53.6717 23.546C53.2611 23.546 52.8784 23.6487 52.5237 23.854C52.1691 24.05 51.8797 24.344 51.6557 24.736C51.4411 25.1187 51.3337 25.576 51.3337 26.108C51.3337 26.64 51.4411 27.1067 51.6557 27.508C51.8797 27.9093 52.1691 28.2173 52.5237 28.432C52.8877 28.6373 53.2704 28.74 53.6717 28.74C54.0824 28.74 54.4651 28.6373 54.8197 28.432C55.1744 28.2267 55.4591 27.928 55.6737 27.536C55.8977 27.1347 56.0097 26.668 56.0097 26.136ZM66.786 25.954C66.786 26.2433 66.7673 26.5047 66.73 26.738H60.836C60.8827 27.354 61.1113 27.8487 61.522 28.222C61.9327 28.5953 62.4367 28.782 63.034 28.782C63.8927 28.782 64.4993 28.4227 64.854 27.704H66.576C66.3427 28.4133 65.918 28.9967 65.302 29.454C64.6953 29.902 63.9393 30.126 63.034 30.126C62.2967 30.126 61.634 29.9627 61.046 29.636C60.4673 29.3 60.01 28.8333 59.674 28.236C59.3473 27.6293 59.184 26.9293 59.184 26.136C59.184 25.3427 59.3427 24.6473 59.66 24.05C59.9867 23.4433 60.4393 22.9767 61.018 22.65C61.606 22.3233 62.278 22.16 63.034 22.16C63.762 22.16 64.4107 22.3187 64.98 22.636C65.5493 22.9533 65.9927 23.4013 66.31 23.98C66.6273 24.5493 66.786 25.2073 66.786 25.954ZM65.12 25.45C65.1107 24.862 64.9007 24.3907 64.49 24.036C64.0793 23.6813 63.5707 23.504 62.964 23.504C62.4133 23.504 61.942 23.6813 61.55 24.036C61.158 24.3813 60.9247 24.8527 60.85 25.45H65.12ZM72.2486 22.16C72.8553 22.16 73.3966 22.286 73.8726 22.538C74.358 22.79 74.736 23.1633 75.0066 23.658C75.2773 24.1527 75.4126 24.75 75.4126 25.45V30H73.8306V25.688C73.8306 24.9973 73.658 24.47 73.3126 24.106C72.9673 23.7327 72.496 23.546 71.8986 23.546C71.3013 23.546 70.8253 23.7327 70.4706 24.106C70.1253 24.47 69.9526 24.9973 69.9526 25.688V30H68.3566V22.286H69.9526V23.168C70.214 22.8507 70.5453 22.6033 70.9466 22.426C71.3573 22.2487 71.7913 22.16 72.2486 22.16ZM79.3104 23.588V27.858C79.3104 28.1473 79.3758 28.3573 79.5064 28.488C79.6464 28.6093 79.8798 28.67 80.2064 28.67H81.1864V30H79.9264C79.2078 30 78.6571 29.832 78.2744 29.496C77.8918 29.16 77.7004 28.614 77.7004 27.858V23.588H76.7904V22.286H77.7004V20.368H79.3104V22.286H81.1864V23.588H79.3104ZM87.1061 21.264C86.8168 21.264 86.5741 21.166 86.3781 20.97C86.1821 20.774 86.0841 20.5313 86.0841 20.242C86.0841 19.9527 86.1821 19.71 86.3781 19.514C86.5741 19.318 86.8168 19.22 87.1061 19.22C87.3861 19.22 87.6241 19.318 87.8201 19.514C88.0161 19.71 88.1141 19.9527 88.1141 20.242C88.1141 20.5313 88.0161 20.774 87.8201 20.97C87.6241 21.166 87.3861 21.264 87.1061 21.264ZM87.8901 22.286V30H86.2941V22.286H87.8901ZM93.8775 22.16C94.4842 22.16 95.0255 22.286 95.5015 22.538C95.9869 22.79 96.3649 23.1633 96.6355 23.658C96.9062 24.1527 97.0415 24.75 97.0415 25.45V30H95.4595V25.688C95.4595 24.9973 95.2869 24.47 94.9415 24.106C94.5962 23.7327 94.1249 23.546 93.5275 23.546C92.9302 23.546 92.4542 23.7327 92.0995 24.106C91.7542 24.47 91.5815 24.9973 91.5815 25.688V30H89.9855V22.286H91.5815V23.168C91.8429 22.8507 92.1742 22.6033 92.5755 22.426C92.9862 22.2487 93.4202 22.16 93.8775 22.16ZM102.059 28.572L104.243 22.286H105.937L102.997 30H101.093L98.1673 22.286H99.8753L102.059 28.572ZM114.214 25.954C114.214 26.2433 114.195 26.5047 114.158 26.738H108.264C108.31 27.354 108.539 27.8487 108.95 28.222C109.36 28.5953 109.864 28.782 110.462 28.782C111.32 28.782 111.927 28.4227 112.282 27.704H114.004C113.77 28.4133 113.346 28.9967 112.73 29.454C112.123 29.902 111.367 30.126 110.462 30.126C109.724 30.126 109.062 29.9627 108.474 29.636C107.895 29.3 107.438 28.8333 107.102 28.236C106.775 27.6293 106.612 26.9293 106.612 26.136C106.612 25.3427 106.77 24.6473 107.088 24.05C107.414 23.4433 107.867 22.9767 108.446 22.65C109.034 22.3233 109.706 22.16 110.462 22.16C111.19 22.16 111.838 22.3187 112.408 22.636C112.977 22.9533 113.42 23.4013 113.738 23.98C114.055 24.5493 114.214 25.2073 114.214 25.954ZM112.548 25.45C112.538 24.862 112.328 24.3907 111.918 24.036C111.507 23.6813 110.998 23.504 110.392 23.504C109.841 23.504 109.37 23.6813 108.978 24.036C108.586 24.3813 108.352 24.8527 108.278 25.45H112.548ZM119.676 22.16C120.283 22.16 120.824 22.286 121.3 22.538C121.786 22.79 122.164 23.1633 122.434 23.658C122.705 24.1527 122.84 24.75 122.84 25.45V30H121.258V25.688C121.258 24.9973 121.086 24.47 120.74 24.106C120.395 23.7327 119.924 23.546 119.326 23.546C118.729 23.546 118.253 23.7327 117.898 24.106C117.553 24.47 117.38 24.9973 117.38 25.688V30H115.784V22.286H117.38V23.168C117.642 22.8507 117.973 22.6033 118.374 22.426C118.785 22.2487 119.219 22.16 119.676 22.16ZM126.738 23.588V27.858C126.738 28.1473 126.804 28.3573 126.934 28.488C127.074 28.6093 127.308 28.67 127.634 28.67H128.614V30H127.354C126.636 30 126.085 29.832 125.702 29.496C125.32 29.16 125.128 28.614 125.128 27.858V23.588H124.218V22.286H125.128V20.368H126.738V22.286H128.614V23.588H126.738ZM133.431 30.126C132.703 30.126 132.045 29.9627 131.457 29.636C130.869 29.3 130.407 28.8333 130.071 28.236C129.735 27.6293 129.567 26.9293 129.567 26.136C129.567 25.352 129.74 24.6567 130.085 24.05C130.43 23.4433 130.902 22.9767 131.499 22.65C132.096 22.3233 132.764 22.16 133.501 22.16C134.238 22.16 134.906 22.3233 135.503 22.65C136.1 22.9767 136.572 23.4433 136.917 24.05C137.262 24.6567 137.435 25.352 137.435 26.136C137.435 26.92 137.258 27.6153 136.903 28.222C136.548 28.8287 136.063 29.3 135.447 29.636C134.84 29.9627 134.168 30.126 133.431 30.126ZM133.431 28.74C133.842 28.74 134.224 28.642 134.579 28.446C134.943 28.25 135.237 27.956 135.461 27.564C135.685 27.172 135.797 26.696 135.797 26.136C135.797 25.576 135.69 25.1047 135.475 24.722C135.26 24.33 134.976 24.036 134.621 23.84C134.266 23.644 133.884 23.546 133.473 23.546C133.062 23.546 132.68 23.644 132.325 23.84C131.98 24.036 131.704 24.33 131.499 24.722C131.294 25.1047 131.191 25.576 131.191 26.136C131.191 26.9667 131.401 27.6107 131.821 28.068C132.25 28.516 132.787 28.74 133.431 28.74ZM140.609 23.406C140.842 23.014 141.15 22.7107 141.533 22.496C141.925 22.272 142.387 22.16 142.919 22.16V23.812H142.513C141.888 23.812 141.412 23.9707 141.085 24.288C140.768 24.6053 140.609 25.156 140.609 25.94V30H139.013V22.286H140.609V23.406ZM151.33 22.286L146.598 33.626H144.946L146.514 29.874L143.476 22.286H145.254L147.424 28.166L149.678 22.286H151.33ZM158.971 30.126C158.364 30.126 157.818 30.0187 157.333 29.804C156.857 29.58 156.479 29.2813 156.199 28.908C155.919 28.5253 155.77 28.1007 155.751 27.634H157.403C157.431 27.9607 157.585 28.236 157.865 28.46C158.154 28.6747 158.514 28.782 158.943 28.782C159.391 28.782 159.736 28.698 159.979 28.53C160.231 28.3527 160.357 28.1287 160.357 27.858C160.357 27.5687 160.217 27.354 159.937 27.214C159.666 27.074 159.232 26.92 158.635 26.752C158.056 26.5933 157.585 26.4393 157.221 26.29C156.857 26.1407 156.54 25.912 156.269 25.604C156.008 25.296 155.877 24.89 155.877 24.386C155.877 23.9753 155.998 23.602 156.241 23.266C156.484 22.9207 156.829 22.65 157.277 22.454C157.734 22.258 158.257 22.16 158.845 22.16C159.722 22.16 160.427 22.384 160.959 22.832C161.5 23.2707 161.79 23.8727 161.827 24.638H160.231C160.203 24.2927 160.063 24.0173 159.811 23.812C159.559 23.6067 159.218 23.504 158.789 23.504C158.369 23.504 158.047 23.5833 157.823 23.742C157.599 23.9007 157.487 24.1107 157.487 24.372C157.487 24.5773 157.562 24.75 157.711 24.89C157.86 25.03 158.042 25.142 158.257 25.226C158.472 25.3007 158.789 25.3987 159.209 25.52C159.769 25.6693 160.226 25.8233 160.581 25.982C160.945 26.1313 161.258 26.3553 161.519 26.654C161.78 26.9527 161.916 27.3493 161.925 27.844C161.925 28.2827 161.804 28.6747 161.561 29.02C161.318 29.3653 160.973 29.636 160.525 29.832C160.086 30.028 159.568 30.126 158.971 30.126ZM164.462 21.264C164.172 21.264 163.93 21.166 163.734 20.97C163.538 20.774 163.44 20.5313 163.44 20.242C163.44 19.9527 163.538 19.71 163.734 19.514C163.93 19.318 164.172 19.22 164.462 19.22C164.742 19.22 164.98 19.318 165.176 19.514C165.372 19.71 165.47 19.9527 165.47 20.242C165.47 20.5313 165.372 20.774 165.176 20.97C164.98 21.166 164.742 21.264 164.462 21.264ZM165.246 22.286V30H163.65V22.286H165.246ZM170.449 22.16C171.046 22.16 171.574 22.2813 172.031 22.524C172.498 22.7573 172.862 23.0513 173.123 23.406V22.286H174.733V30.126C174.733 30.8353 174.584 31.4653 174.285 32.016C173.986 32.576 173.552 33.0147 172.983 33.332C172.423 33.6493 171.751 33.808 170.967 33.808C169.922 33.808 169.054 33.5607 168.363 33.066C167.672 32.5807 167.28 31.918 167.187 31.078H168.769C168.89 31.4793 169.147 31.8013 169.539 32.044C169.94 32.296 170.416 32.422 170.967 32.422C171.611 32.422 172.129 32.226 172.521 31.834C172.922 31.442 173.123 30.8727 173.123 30.126V28.838C172.852 29.202 172.484 29.51 172.017 29.762C171.56 30.0047 171.037 30.126 170.449 30.126C169.777 30.126 169.161 29.958 168.601 29.622C168.05 29.2767 167.612 28.8007 167.285 28.194C166.968 27.578 166.809 26.8827 166.809 26.108C166.809 25.3333 166.968 24.6473 167.285 24.05C167.612 23.4527 168.05 22.9907 168.601 22.664C169.161 22.328 169.777 22.16 170.449 22.16ZM173.123 26.136C173.123 25.604 173.011 25.142 172.787 24.75C172.572 24.358 172.288 24.0593 171.933 23.854C171.578 23.6487 171.196 23.546 170.785 23.546C170.374 23.546 169.992 23.6487 169.637 23.854C169.282 24.05 168.993 24.344 168.769 24.736C168.554 25.1187 168.447 25.576 168.447 26.108C168.447 26.64 168.554 27.1067 168.769 27.508C168.993 27.9093 169.282 28.2173 169.637 28.432C170.001 28.6373 170.384 28.74 170.785 28.74C171.196 28.74 171.578 28.6373 171.933 28.432C172.288 28.2267 172.572 27.928 172.787 27.536C173.011 27.1347 173.123 26.668 173.123 26.136ZM180.721 22.16C181.328 22.16 181.869 22.286 182.345 22.538C182.831 22.79 183.209 23.1633 183.479 23.658C183.75 24.1527 183.885 24.75 183.885 25.45V30H182.303V25.688C182.303 24.9973 182.131 24.47 181.785 24.106C181.44 23.7327 180.969 23.546 180.371 23.546C179.774 23.546 179.298 23.7327 178.943 24.106C178.598 24.47 178.425 24.9973 178.425 25.688V30H176.829V22.286H178.425V23.168C178.687 22.8507 179.018 22.6033 179.419 22.426C179.83 22.2487 180.264 22.16 180.721 22.16ZM185.389 26.108C185.389 25.3333 185.548 24.6473 185.865 24.05C186.192 23.4527 186.63 22.9907 187.181 22.664C187.741 22.328 188.357 22.16 189.029 22.16C189.636 22.16 190.163 22.2813 190.611 22.524C191.068 22.7573 191.432 23.0513 191.703 23.406V22.286H193.313V30H191.703V28.852C191.432 29.216 191.064 29.5193 190.597 29.762C190.13 30.0047 189.598 30.126 189.001 30.126C188.338 30.126 187.732 29.958 187.181 29.622C186.63 29.2767 186.192 28.8007 185.865 28.194C185.548 27.578 185.389 26.8827 185.389 26.108ZM191.703 26.136C191.703 25.604 191.591 25.142 191.367 24.75C191.152 24.358 190.868 24.0593 190.513 23.854C190.158 23.6487 189.776 23.546 189.365 23.546C188.954 23.546 188.572 23.6487 188.217 23.854C187.862 24.05 187.573 24.344 187.349 24.736C187.134 25.1187 187.027 25.576 187.027 26.108C187.027 26.64 187.134 27.1067 187.349 27.508C187.573 27.9093 187.862 28.2173 188.217 28.432C188.581 28.6373 188.964 28.74 189.365 28.74C189.776 28.74 190.158 28.6373 190.513 28.432C190.868 28.2267 191.152 27.928 191.367 27.536C191.591 27.1347 191.703 26.668 191.703 26.136ZM197.005 19.64V30H195.409V19.64H197.005ZM201.901 30.126C201.294 30.126 200.748 30.0187 200.263 29.804C199.787 29.58 199.409 29.2813 199.129 28.908C198.849 28.5253 198.699 28.1007 198.681 27.634H200.333C200.361 27.9607 200.515 28.236 200.795 28.46C201.084 28.6747 201.443 28.782 201.873 28.782C202.321 28.782 202.666 28.698 202.909 28.53C203.161 28.3527 203.287 28.1287 203.287 27.858C203.287 27.5687 203.147 27.354 202.867 27.214C202.596 27.074 202.162 26.92 201.565 26.752C200.986 26.5933 200.515 26.4393 200.151 26.29C199.787 26.1407 199.469 25.912 199.199 25.604C198.937 25.296 198.807 24.89 198.807 24.386C198.807 23.9753 198.928 23.602 199.171 23.266C199.413 22.9207 199.759 22.65 200.207 22.454C200.664 22.258 201.187 22.16 201.775 22.16C202.652 22.16 203.357 22.384 203.889 22.832C204.43 23.2707 204.719 23.8727 204.757 24.638H203.161C203.133 24.2927 202.993 24.0173 202.741 23.812C202.489 23.6067 202.148 23.504 201.719 23.504C201.299 23.504 200.977 23.5833 200.753 23.742C200.529 23.9007 200.417 24.1107 200.417 24.372C200.417 24.5773 200.491 24.75 200.641 24.89C200.79 25.03 200.972 25.142 201.187 25.226C201.401 25.3007 201.719 25.3987 202.139 25.52C202.699 25.6693 203.156 25.8233 203.511 25.982C203.875 26.1313 204.187 26.3553 204.449 26.654C204.71 26.9527 204.845 27.3493 204.855 27.844C204.855 28.2827 204.733 28.6747 204.491 29.02C204.248 29.3653 203.903 29.636 203.455 29.832C203.016 30.028 202.498 30.126 201.901 30.126Z" fill="white"/>
</svg>
