<svg width="218" height="50" viewBox="0 0 218 50" fill="none" xmlns="http://www.w3.org/2000/svg">
<rect width="218" height="50" rx="8" fill="#C40061" fill-opacity="0.18"/>
<rect x="0.5" y="0.5" width="217" height="49" rx="7.5" stroke="#FF007E" stroke-opacity="0.27"/>
<path d="M41.0366 21.558V24.414H44.3966V25.716H41.0366V28.698H44.8166V30H39.4406V20.256H44.8166V21.558H41.0366ZM49.7644 28.572L51.9484 22.286H53.6424L50.7024 30H48.7984L45.8724 22.286H47.5804L49.7644 28.572ZM61.9188 25.954C61.9188 26.2433 61.9002 26.5047 61.8628 26.738H55.9688C56.0155 27.354 56.2442 27.8487 56.6548 28.222C57.0655 28.5953 57.5695 28.782 58.1668 28.782C59.0255 28.782 59.6322 28.4227 59.9868 27.704H61.7088C61.4755 28.4133 61.0508 28.9967 60.4348 29.454C59.8282 29.902 59.0722 30.126 58.1668 30.126C57.4295 30.126 56.7668 29.9627 56.1788 29.636C55.6002 29.3 55.1428 28.8333 54.8068 28.236C54.4802 27.6293 54.3168 26.9293 54.3168 26.136C54.3168 25.3427 54.4755 24.6473 54.7928 24.05C55.1195 23.4433 55.5722 22.9767 56.1508 22.65C56.7388 22.3233 57.4108 22.16 58.1668 22.16C58.8948 22.16 59.5435 22.3187 60.1128 22.636C60.6822 22.9533 61.1255 23.4013 61.4428 23.98C61.7602 24.5493 61.9188 25.2073 61.9188 25.954ZM60.2528 25.45C60.2435 24.862 60.0335 24.3907 59.6228 24.036C59.2122 23.6813 58.7035 23.504 58.0968 23.504C57.5462 23.504 57.0748 23.6813 56.6828 24.036C56.2908 24.3813 56.0575 24.8527 55.9828 25.45H60.2528ZM67.3815 22.16C67.9881 22.16 68.5295 22.286 69.0055 22.538C69.4908 22.79 69.8688 23.1633 70.1395 23.658C70.4101 24.1527 70.5455 24.75 70.5455 25.45V30H68.9635V25.688C68.9635 24.9973 68.7908 24.47 68.4455 24.106C68.1001 23.7327 67.6288 23.546 67.0315 23.546C66.4341 23.546 65.9581 23.7327 65.6035 24.106C65.2581 24.47 65.0855 24.9973 65.0855 25.688V30H63.4895V22.286H65.0855V23.168C65.3468 22.8507 65.6781 22.6033 66.0795 22.426C66.4901 22.2487 66.9241 22.16 67.3815 22.16ZM74.4433 23.588V27.858C74.4433 28.1473 74.5086 28.3573 74.6393 28.488C74.7793 28.6093 75.0126 28.67 75.3393 28.67H76.3193V30H75.0593C74.3406 30 73.7899 29.832 73.4073 29.496C73.0246 29.16 72.8333 28.614 72.8333 27.858V23.588H71.9233V22.286H72.8333V20.368H74.4433V22.286H76.3193V23.588H74.4433ZM90.765 22.16C91.3716 22.16 91.913 22.286 92.389 22.538C92.8743 22.79 93.2523 23.1633 93.523 23.658C93.803 24.1527 93.943 24.75 93.943 25.45V30H92.361V25.688C92.361 24.9973 92.1883 24.47 91.843 24.106C91.4976 23.7327 91.0263 23.546 90.429 23.546C89.8316 23.546 89.3556 23.7327 89.001 24.106C88.6556 24.47 88.483 24.9973 88.483 25.688V30H86.901V25.688C86.901 24.9973 86.7283 24.47 86.383 24.106C86.0376 23.7327 85.5663 23.546 84.969 23.546C84.3716 23.546 83.8956 23.7327 83.541 24.106C83.1956 24.47 83.023 24.9973 83.023 25.688V30H81.427V22.286H83.023V23.168C83.2843 22.8507 83.6156 22.6033 84.017 22.426C84.4183 22.2487 84.8476 22.16 85.305 22.16C85.921 22.16 86.4716 22.2907 86.957 22.552C87.4423 22.8133 87.8156 23.1913 88.077 23.686C88.3103 23.2193 88.6743 22.8507 89.169 22.58C89.6636 22.3 90.1956 22.16 90.765 22.16ZM95.4418 26.108C95.4418 25.3333 95.6005 24.6473 95.9178 24.05C96.2445 23.4527 96.6832 22.9907 97.2338 22.664C97.7938 22.328 98.4098 22.16 99.0818 22.16C99.6885 22.16 100.216 22.2813 100.664 22.524C101.121 22.7573 101.485 23.0513 101.756 23.406V22.286H103.366V30H101.756V28.852C101.485 29.216 101.116 29.5193 100.65 29.762C100.183 30.0047 99.6512 30.126 99.0538 30.126C98.3912 30.126 97.7845 29.958 97.2338 29.622C96.6832 29.2767 96.2445 28.8007 95.9178 28.194C95.6005 27.578 95.4418 26.8827 95.4418 26.108ZM101.756 26.136C101.756 25.604 101.644 25.142 101.42 24.75C101.205 24.358 100.92 24.0593 100.566 23.854C100.211 23.6487 99.8285 23.546 99.4178 23.546C99.0072 23.546 98.6245 23.6487 98.2698 23.854C97.9152 24.05 97.6258 24.344 97.4018 24.736C97.1872 25.1187 97.0798 25.576 97.0798 26.108C97.0798 26.64 97.1872 27.1067 97.4018 27.508C97.6258 27.9093 97.9152 28.2173 98.2698 28.432C98.6338 28.6373 99.0165 28.74 99.4178 28.74C99.8285 28.74 100.211 28.6373 100.566 28.432C100.92 28.2267 101.205 27.928 101.42 27.536C101.644 27.1347 101.756 26.668 101.756 26.136ZM109.354 22.16C109.961 22.16 110.502 22.286 110.978 22.538C111.463 22.79 111.841 23.1633 112.112 23.658C112.383 24.1527 112.518 24.75 112.518 25.45V30H110.936V25.688C110.936 24.9973 110.763 24.47 110.418 24.106C110.073 23.7327 109.601 23.546 109.004 23.546C108.407 23.546 107.931 23.7327 107.576 24.106C107.231 24.47 107.058 24.9973 107.058 25.688V30H105.462V22.286H107.058V23.168C107.319 22.8507 107.651 22.6033 108.052 22.426C108.463 22.2487 108.897 22.16 109.354 22.16ZM114.022 26.108C114.022 25.3333 114.181 24.6473 114.498 24.05C114.825 23.4527 115.263 22.9907 115.814 22.664C116.374 22.328 116.99 22.16 117.662 22.16C118.269 22.16 118.796 22.2813 119.244 22.524C119.701 22.7573 120.065 23.0513 120.336 23.406V22.286H121.946V30H120.336V28.852C120.065 29.216 119.697 29.5193 119.23 29.762C118.763 30.0047 118.231 30.126 117.634 30.126C116.971 30.126 116.365 29.958 115.814 29.622C115.263 29.2767 114.825 28.8007 114.498 28.194C114.181 27.578 114.022 26.8827 114.022 26.108ZM120.336 26.136C120.336 25.604 120.224 25.142 120 24.75C119.785 24.358 119.501 24.0593 119.146 23.854C118.791 23.6487 118.409 23.546 117.998 23.546C117.587 23.546 117.205 23.6487 116.85 23.854C116.495 24.05 116.206 24.344 115.982 24.736C115.767 25.1187 115.66 25.576 115.66 26.108C115.66 26.64 115.767 27.1067 115.982 27.508C116.206 27.9093 116.495 28.2173 116.85 28.432C117.214 28.6373 117.597 28.74 117.998 28.74C118.409 28.74 118.791 28.6373 119.146 28.432C119.501 28.2267 119.785 27.928 120 27.536C120.224 27.1347 120.336 26.668 120.336 26.136ZM127.15 22.16C127.748 22.16 128.275 22.2813 128.732 22.524C129.199 22.7573 129.563 23.0513 129.824 23.406V22.286H131.434V30.126C131.434 30.8353 131.285 31.4653 130.986 32.016C130.688 32.576 130.254 33.0147 129.684 33.332C129.124 33.6493 128.452 33.808 127.668 33.808C126.623 33.808 125.755 33.5607 125.064 33.066C124.374 32.5807 123.982 31.918 123.888 31.078H125.47C125.592 31.4793 125.848 31.8013 126.24 32.044C126.642 32.296 127.118 32.422 127.668 32.422C128.312 32.422 128.83 32.226 129.222 31.834C129.624 31.442 129.824 30.8727 129.824 30.126V28.838C129.554 29.202 129.185 29.51 128.718 29.762C128.261 30.0047 127.738 30.126 127.15 30.126C126.478 30.126 125.862 29.958 125.302 29.622C124.752 29.2767 124.313 28.8007 123.986 28.194C123.669 27.578 123.51 26.8827 123.51 26.108C123.51 25.3333 123.669 24.6473 123.986 24.05C124.313 23.4527 124.752 22.9907 125.302 22.664C125.862 22.328 126.478 22.16 127.15 22.16ZM129.824 26.136C129.824 25.604 129.712 25.142 129.488 24.75C129.274 24.358 128.989 24.0593 128.634 23.854C128.28 23.6487 127.897 23.546 127.486 23.546C127.076 23.546 126.693 23.6487 126.338 23.854C125.984 24.05 125.694 24.344 125.47 24.736C125.256 25.1187 125.148 25.576 125.148 26.108C125.148 26.64 125.256 27.1067 125.47 27.508C125.694 27.9093 125.984 28.2173 126.338 28.432C126.702 28.6373 127.085 28.74 127.486 28.74C127.897 28.74 128.28 28.6373 128.634 28.432C128.989 28.2267 129.274 27.928 129.488 27.536C129.712 27.1347 129.824 26.668 129.824 26.136ZM140.6 25.954C140.6 26.2433 140.582 26.5047 140.544 26.738H134.65C134.697 27.354 134.926 27.8487 135.336 28.222C135.747 28.5953 136.251 28.782 136.848 28.782C137.707 28.782 138.314 28.4227 138.668 27.704H140.39C140.157 28.4133 139.732 28.9967 139.116 29.454C138.51 29.902 137.754 30.126 136.848 30.126C136.111 30.126 135.448 29.9627 134.86 29.636C134.282 29.3 133.824 28.8333 133.488 28.236C133.162 27.6293 132.998 26.9293 132.998 26.136C132.998 25.3427 133.157 24.6473 133.474 24.05C133.801 23.4433 134.254 22.9767 134.832 22.65C135.42 22.3233 136.092 22.16 136.848 22.16C137.576 22.16 138.225 22.3187 138.794 22.636C139.364 22.9533 139.807 23.4013 140.124 23.98C140.442 24.5493 140.6 25.2073 140.6 25.954ZM138.934 25.45C138.925 24.862 138.715 24.3907 138.304 24.036C137.894 23.6813 137.385 23.504 136.778 23.504C136.228 23.504 135.756 23.6813 135.364 24.036C134.972 24.3813 134.739 24.8527 134.664 25.45H138.934ZM151.509 22.16C152.116 22.16 152.657 22.286 153.133 22.538C153.618 22.79 153.996 23.1633 154.267 23.658C154.547 24.1527 154.687 24.75 154.687 25.45V30H153.105V25.688C153.105 24.9973 152.932 24.47 152.587 24.106C152.242 23.7327 151.77 23.546 151.173 23.546C150.576 23.546 150.1 23.7327 149.745 24.106C149.4 24.47 149.227 24.9973 149.227 25.688V30H147.645V25.688C147.645 24.9973 147.472 24.47 147.127 24.106C146.782 23.7327 146.31 23.546 145.713 23.546C145.116 23.546 144.64 23.7327 144.285 24.106C143.94 24.47 143.767 24.9973 143.767 25.688V30H142.171V22.286H143.767V23.168C144.028 22.8507 144.36 22.6033 144.761 22.426C145.162 22.2487 145.592 22.16 146.049 22.16C146.665 22.16 147.216 22.2907 147.701 22.552C148.186 22.8133 148.56 23.1913 148.821 23.686C149.054 23.2193 149.418 22.8507 149.913 22.58C150.408 22.3 150.94 22.16 151.509 22.16ZM163.788 25.954C163.788 26.2433 163.769 26.5047 163.732 26.738H157.838C157.885 27.354 158.113 27.8487 158.524 28.222C158.935 28.5953 159.439 28.782 160.036 28.782C160.895 28.782 161.501 28.4227 161.856 27.704H163.578C163.345 28.4133 162.92 28.9967 162.304 29.454C161.697 29.902 160.941 30.126 160.036 30.126C159.299 30.126 158.636 29.9627 158.048 29.636C157.469 29.3 157.012 28.8333 156.676 28.236C156.349 27.6293 156.186 26.9293 156.186 26.136C156.186 25.3427 156.345 24.6473 156.662 24.05C156.989 23.4433 157.441 22.9767 158.02 22.65C158.608 22.3233 159.28 22.16 160.036 22.16C160.764 22.16 161.413 22.3187 161.982 22.636C162.551 22.9533 162.995 23.4013 163.312 23.98C163.629 24.5493 163.788 25.2073 163.788 25.954ZM162.122 25.45C162.113 24.862 161.903 24.3907 161.492 24.036C161.081 23.6813 160.573 23.504 159.966 23.504C159.415 23.504 158.944 23.6813 158.552 24.036C158.16 24.3813 157.927 24.8527 157.852 25.45H162.122ZM169.251 22.16C169.857 22.16 170.399 22.286 170.875 22.538C171.36 22.79 171.738 23.1633 172.009 23.658C172.279 24.1527 172.415 24.75 172.415 25.45V30H170.833V25.688C170.833 24.9973 170.66 24.47 170.315 24.106C169.969 23.7327 169.498 23.546 168.901 23.546C168.303 23.546 167.827 23.7327 167.473 24.106C167.127 24.47 166.955 24.9973 166.955 25.688V30H165.359V22.286H166.955V23.168C167.216 22.8507 167.547 22.6033 167.949 22.426C168.359 22.2487 168.793 22.16 169.251 22.16ZM176.312 23.588V27.858C176.312 28.1473 176.378 28.3573 176.508 28.488C176.648 28.6093 176.882 28.67 177.208 28.67H178.188V30H176.928C176.21 30 175.659 29.832 175.276 29.496C174.894 29.16 174.702 28.614 174.702 27.858V23.588H173.792V22.286H174.702V20.368H176.312V22.286H178.188V23.588H176.312Z" fill="white"/>
</svg>
