<svg width="197" height="50" viewBox="0 0 197 50" fill="none" xmlns="http://www.w3.org/2000/svg">
<rect x="-21" width="218" height="50" rx="8" fill="#C40061" fill-opacity="0.18"/>
<rect x="-20.5" y="0.5" width="217" height="49" rx="7.5" stroke="#FF007E" stroke-opacity="0.27"/>
<path d="M63.1145 23.07C62.8625 22.5847 62.5125 22.2207 62.0645 21.978C61.6165 21.726 61.0985 21.6 60.5105 21.6C59.8665 21.6 59.2925 21.7447 58.7885 22.034C58.2845 22.3233 57.8878 22.734 57.5985 23.266C57.3185 23.798 57.1785 24.414 57.1785 25.114C57.1785 25.814 57.3185 26.4347 57.5985 26.976C57.8878 27.508 58.2845 27.9187 58.7885 28.208C59.2925 28.4973 59.8665 28.642 60.5105 28.642C61.3785 28.642 62.0831 28.3993 62.6245 27.914C63.1658 27.4287 63.4971 26.7707 63.6185 25.94H59.9645V24.666H65.3265V25.912C65.2238 26.668 64.9531 27.3633 64.5145 27.998C64.0851 28.6327 63.5205 29.1413 62.8205 29.524C62.1298 29.8973 61.3598 30.084 60.5105 30.084C59.5958 30.084 58.7605 29.874 58.0045 29.454C57.2485 29.0247 56.6465 28.432 56.1985 27.676C55.7598 26.92 55.5405 26.066 55.5405 25.114C55.5405 24.162 55.7598 23.308 56.1985 22.552C56.6465 21.796 57.2485 21.208 58.0045 20.788C58.7698 20.3587 59.6051 20.144 60.5105 20.144C61.5465 20.144 62.4658 20.4007 63.2685 20.914C64.0805 21.418 64.6685 22.1367 65.0325 23.07H63.1145ZM73.8866 22.286V30H72.2906V29.09C72.0386 29.4073 71.7073 29.6593 71.2966 29.846C70.8953 30.0233 70.4659 30.112 70.0086 30.112C69.4019 30.112 68.8559 29.986 68.3706 29.734C67.8946 29.482 67.5166 29.1087 67.2366 28.614C66.9659 28.1193 66.8306 27.522 66.8306 26.822V22.286H68.4126V26.584C68.4126 27.2747 68.5853 27.8067 68.9306 28.18C69.2759 28.544 69.7473 28.726 70.3446 28.726C70.9419 28.726 71.4133 28.544 71.7586 28.18C72.1133 27.8067 72.2906 27.2747 72.2906 26.584V22.286H73.8866ZM83.0624 25.954C83.0624 26.2433 83.0437 26.5047 83.0064 26.738H77.1124C77.159 27.354 77.3877 27.8487 77.7984 28.222C78.209 28.5953 78.713 28.782 79.3104 28.782C80.169 28.782 80.7757 28.4227 81.1304 27.704H82.8524C82.619 28.4133 82.1944 28.9967 81.5784 29.454C80.9717 29.902 80.2157 30.126 79.3104 30.126C78.573 30.126 77.9104 29.9627 77.3224 29.636C76.7437 29.3 76.2864 28.8333 75.9504 28.236C75.6237 27.6293 75.4604 26.9293 75.4604 26.136C75.4604 25.3427 75.619 24.6473 75.9364 24.05C76.263 23.4433 76.7157 22.9767 77.2944 22.65C77.8824 22.3233 78.5544 22.16 79.3104 22.16C80.0384 22.16 80.687 22.3187 81.2564 22.636C81.8257 22.9533 82.269 23.4013 82.5864 23.98C82.9037 24.5493 83.0624 25.2073 83.0624 25.954ZM81.3964 25.45C81.387 24.862 81.177 24.3907 80.7664 24.036C80.3557 23.6813 79.847 23.504 79.2404 23.504C78.6897 23.504 78.2184 23.6813 77.8264 24.036C77.4344 24.3813 77.201 24.8527 77.1264 25.45H81.3964ZM87.433 30.126C86.8263 30.126 86.2803 30.0187 85.795 29.804C85.319 29.58 84.941 29.2813 84.661 28.908C84.381 28.5253 84.2317 28.1007 84.213 27.634H85.865C85.893 27.9607 86.047 28.236 86.327 28.46C86.6163 28.6747 86.9757 28.782 87.405 28.782C87.853 28.782 88.1983 28.698 88.441 28.53C88.693 28.3527 88.819 28.1287 88.819 27.858C88.819 27.5687 88.679 27.354 88.399 27.214C88.1283 27.074 87.6943 26.92 87.097 26.752C86.5183 26.5933 86.047 26.4393 85.683 26.29C85.319 26.1407 85.0017 25.912 84.731 25.604C84.4697 25.296 84.339 24.89 84.339 24.386C84.339 23.9753 84.4603 23.602 84.703 23.266C84.9457 22.9207 85.291 22.65 85.739 22.454C86.1963 22.258 86.719 22.16 87.307 22.16C88.1843 22.16 88.889 22.384 89.421 22.832C89.9623 23.2707 90.2517 23.8727 90.289 24.638H88.693C88.665 24.2927 88.525 24.0173 88.273 23.812C88.021 23.6067 87.6803 23.504 87.251 23.504C86.831 23.504 86.509 23.5833 86.285 23.742C86.061 23.9007 85.949 24.1107 85.949 24.372C85.949 24.5773 86.0237 24.75 86.173 24.89C86.3223 25.03 86.5043 25.142 86.719 25.226C86.9337 25.3007 87.251 25.3987 87.671 25.52C88.231 25.6693 88.6883 25.8233 89.043 25.982C89.407 26.1313 89.7197 26.3553 89.981 26.654C90.2423 26.9527 90.3777 27.3493 90.387 27.844C90.387 28.2827 90.2657 28.6747 90.023 29.02C89.7803 29.3653 89.435 29.636 88.987 29.832C88.5483 30.028 88.0303 30.126 87.433 30.126ZM93.9735 23.588V27.858C93.9735 28.1473 94.0389 28.3573 94.1695 28.488C94.3095 28.6093 94.5429 28.67 94.8695 28.67H95.8495V30H94.5895C93.8709 30 93.3202 29.832 92.9375 29.496C92.5549 29.16 92.3635 28.614 92.3635 27.858V23.588H91.4535V22.286H92.3635V20.368H93.9735V22.286H95.8495V23.588H93.9735ZM102.553 19.64V30H100.957V19.64H102.553ZM105.461 21.264C105.171 21.264 104.929 21.166 104.733 20.97C104.537 20.774 104.439 20.5313 104.439 20.242C104.439 19.9527 104.537 19.71 104.733 19.514C104.929 19.318 105.171 19.22 105.461 19.22C105.741 19.22 105.979 19.318 106.175 19.514C106.371 19.71 106.469 19.9527 106.469 20.242C106.469 20.5313 106.371 20.774 106.175 20.97C105.979 21.166 105.741 21.264 105.461 21.264ZM106.245 22.286V30H104.649V22.286H106.245ZM111.14 30.126C110.533 30.126 109.987 30.0187 109.502 29.804C109.026 29.58 108.648 29.2813 108.368 28.908C108.088 28.5253 107.939 28.1007 107.92 27.634H109.572C109.6 27.9607 109.754 28.236 110.034 28.46C110.323 28.6747 110.683 28.782 111.112 28.782C111.56 28.782 111.905 28.698 112.148 28.53C112.4 28.3527 112.526 28.1287 112.526 27.858C112.526 27.5687 112.386 27.354 112.106 27.214C111.835 27.074 111.401 26.92 110.804 26.752C110.225 26.5933 109.754 26.4393 109.39 26.29C109.026 26.1407 108.709 25.912 108.438 25.604C108.177 25.296 108.046 24.89 108.046 24.386C108.046 23.9753 108.167 23.602 108.41 23.266C108.653 22.9207 108.998 22.65 109.446 22.454C109.903 22.258 110.426 22.16 111.014 22.16C111.891 22.16 112.596 22.384 113.128 22.832C113.669 23.2707 113.959 23.8727 113.996 24.638H112.4C112.372 24.2927 112.232 24.0173 111.98 23.812C111.728 23.6067 111.387 23.504 110.958 23.504C110.538 23.504 110.216 23.5833 109.992 23.742C109.768 23.9007 109.656 24.1107 109.656 24.372C109.656 24.5773 109.731 24.75 109.88 24.89C110.029 25.03 110.211 25.142 110.426 25.226C110.641 25.3007 110.958 25.3987 111.378 25.52C111.938 25.6693 112.395 25.8233 112.75 25.982C113.114 26.1313 113.427 26.3553 113.688 26.654C113.949 26.9527 114.085 27.3493 114.094 27.844C114.094 28.2827 113.973 28.6747 113.73 29.02C113.487 29.3653 113.142 29.636 112.694 29.832C112.255 30.028 111.737 30.126 111.14 30.126ZM117.681 23.588V27.858C117.681 28.1473 117.746 28.3573 117.877 28.488C118.017 28.6093 118.25 28.67 118.577 28.67H119.557V30H118.297C117.578 30 117.027 29.832 116.645 29.496C116.262 29.16 116.071 28.614 116.071 27.858V23.588H115.161V22.286H116.071V20.368H117.681V22.286H119.557V23.588H117.681Z" fill="white"/>
</svg>
