<svg width="218" height="50" viewBox="0 0 218 50" fill="none" xmlns="http://www.w3.org/2000/svg">
<rect width="218" height="50" rx="8" fill="#C40061" fill-opacity="0.18"/>
<rect x="0.5" y="0.5" width="217" height="49" rx="7.5" stroke="#FF007E" stroke-opacity="0.27"/>
<path d="M50.3791 20.27V30H48.7831V23.336L45.8151 30H44.7091L41.7271 23.336V30H40.1311V20.27H41.8531L45.2691 27.9L48.6711 20.27H50.3791ZM59.5468 25.954C59.5468 26.2433 59.5281 26.5047 59.4908 26.738H53.5968C53.6434 27.354 53.8721 27.8487 54.2828 28.222C54.6934 28.5953 55.1974 28.782 55.7948 28.782C56.6534 28.782 57.2601 28.4227 57.6148 27.704H59.3368C59.1034 28.4133 58.6788 28.9967 58.0628 29.454C57.4561 29.902 56.7001 30.126 55.7948 30.126C55.0574 30.126 54.3948 29.9627 53.8068 29.636C53.2281 29.3 52.7708 28.8333 52.4348 28.236C52.1081 27.6293 51.9448 26.9293 51.9448 26.136C51.9448 25.3427 52.1034 24.6473 52.4208 24.05C52.7474 23.4433 53.2001 22.9767 53.7788 22.65C54.3668 22.3233 55.0388 22.16 55.7948 22.16C56.5228 22.16 57.1714 22.3187 57.7408 22.636C58.3101 22.9533 58.7534 23.4013 59.0708 23.98C59.3881 24.5493 59.5468 25.2073 59.5468 25.954ZM57.8808 25.45C57.8714 24.862 57.6614 24.3907 57.2508 24.036C56.8401 23.6813 56.3314 23.504 55.7248 23.504C55.1741 23.504 54.7028 23.6813 54.3108 24.036C53.9188 24.3813 53.6854 24.8527 53.6108 25.45H57.8808ZM65.0094 22.16C65.616 22.16 66.1574 22.286 66.6334 22.538C67.1187 22.79 67.4967 23.1633 67.7674 23.658C68.0381 24.1527 68.1734 24.75 68.1734 25.45V30H66.5914V25.688C66.5914 24.9973 66.4187 24.47 66.0734 24.106C65.728 23.7327 65.2567 23.546 64.6594 23.546C64.062 23.546 63.586 23.7327 63.2314 24.106C62.886 24.47 62.7134 24.9973 62.7134 25.688V30H61.1174V22.286H62.7134V23.168C62.9747 22.8507 63.306 22.6033 63.7074 22.426C64.118 22.2487 64.552 22.16 65.0094 22.16ZM77.1952 22.286V30H75.5992V29.09C75.3472 29.4073 75.0158 29.6593 74.6052 29.846C74.2038 30.0233 73.7745 30.112 73.3172 30.112C72.7105 30.112 72.1645 29.986 71.6792 29.734C71.2032 29.482 70.8252 29.1087 70.5452 28.614C70.2745 28.1193 70.1392 27.522 70.1392 26.822V22.286H71.7212V26.584C71.7212 27.2747 71.8938 27.8067 72.2392 28.18C72.5845 28.544 73.0558 28.726 73.6532 28.726C74.2505 28.726 74.7218 28.544 75.0672 28.18C75.4218 27.8067 75.5992 27.2747 75.5992 26.584V22.286H77.1952ZM93.1857 20.27V30H91.5897V23.336L88.6217 30H87.5157L84.5337 23.336V30H82.9377V20.27H84.6597L88.0757 27.9L91.4777 20.27H93.1857ZM94.7514 26.108C94.7514 25.3333 94.9101 24.6473 95.2274 24.05C95.5541 23.4527 95.9927 22.9907 96.5434 22.664C97.1034 22.328 97.7194 22.16 98.3914 22.16C98.9981 22.16 99.5254 22.2813 99.9734 22.524C100.431 22.7573 100.795 23.0513 101.065 23.406V22.286H102.675V30H101.065V28.852C100.795 29.216 100.426 29.5193 99.9594 29.762C99.4927 30.0047 98.9607 30.126 98.3634 30.126C97.7007 30.126 97.0941 29.958 96.5434 29.622C95.9927 29.2767 95.5541 28.8007 95.2274 28.194C94.9101 27.578 94.7514 26.8827 94.7514 26.108ZM101.065 26.136C101.065 25.604 100.953 25.142 100.729 24.75C100.515 24.358 100.23 24.0593 99.8754 23.854C99.5207 23.6487 99.1381 23.546 98.7274 23.546C98.3167 23.546 97.9341 23.6487 97.5794 23.854C97.2247 24.05 96.9354 24.344 96.7114 24.736C96.4967 25.1187 96.3894 25.576 96.3894 26.108C96.3894 26.64 96.4967 27.1067 96.7114 27.508C96.9354 27.9093 97.2247 28.2173 97.5794 28.432C97.9434 28.6373 98.3261 28.74 98.7274 28.74C99.1381 28.74 99.5207 28.6373 99.8754 28.432C100.23 28.2267 100.515 27.928 100.729 27.536C100.953 27.1347 101.065 26.668 101.065 26.136ZM108.664 22.16C109.27 22.16 109.812 22.286 110.288 22.538C110.773 22.79 111.151 23.1633 111.422 23.658C111.692 24.1527 111.828 24.75 111.828 25.45V30H110.246V25.688C110.246 24.9973 110.073 24.47 109.728 24.106C109.382 23.7327 108.911 23.546 108.314 23.546C107.716 23.546 107.24 23.7327 106.886 24.106C106.54 24.47 106.368 24.9973 106.368 25.688V30H104.772V22.286H106.368V23.168C106.629 22.8507 106.96 22.6033 107.362 22.426C107.772 22.2487 108.206 22.16 108.664 22.16ZM113.331 26.108C113.331 25.3333 113.49 24.6473 113.807 24.05C114.134 23.4527 114.573 22.9907 115.123 22.664C115.683 22.328 116.299 22.16 116.971 22.16C117.578 22.16 118.105 22.2813 118.553 22.524C119.011 22.7573 119.375 23.0513 119.645 23.406V22.286H121.255V30H119.645V28.852C119.375 29.216 119.006 29.5193 118.539 29.762C118.073 30.0047 117.541 30.126 116.943 30.126C116.281 30.126 115.674 29.958 115.123 29.622C114.573 29.2767 114.134 28.8007 113.807 28.194C113.49 27.578 113.331 26.8827 113.331 26.108ZM119.645 26.136C119.645 25.604 119.533 25.142 119.309 24.75C119.095 24.358 118.81 24.0593 118.455 23.854C118.101 23.6487 117.718 23.546 117.307 23.546C116.897 23.546 116.514 23.6487 116.159 23.854C115.805 24.05 115.515 24.344 115.291 24.736C115.077 25.1187 114.969 25.576 114.969 26.108C114.969 26.64 115.077 27.1067 115.291 27.508C115.515 27.9093 115.805 28.2173 116.159 28.432C116.523 28.6373 116.906 28.74 117.307 28.74C117.718 28.74 118.101 28.6373 118.455 28.432C118.81 28.2267 119.095 27.928 119.309 27.536C119.533 27.1347 119.645 26.668 119.645 26.136ZM126.46 22.16C127.057 22.16 127.584 22.2813 128.042 22.524C128.508 22.7573 128.872 23.0513 129.134 23.406V22.286H130.744V30.126C130.744 30.8353 130.594 31.4653 130.296 32.016C129.997 32.576 129.563 33.0147 128.994 33.332C128.434 33.6493 127.762 33.808 126.978 33.808C125.932 33.808 125.064 33.5607 124.374 33.066C123.683 32.5807 123.291 31.918 123.198 31.078H124.78C124.901 31.4793 125.158 31.8013 125.55 32.044C125.951 32.296 126.427 32.422 126.978 32.422C127.622 32.422 128.14 32.226 128.532 31.834C128.933 31.442 129.134 30.8727 129.134 30.126V28.838C128.863 29.202 128.494 29.51 128.028 29.762C127.57 30.0047 127.048 30.126 126.46 30.126C125.788 30.126 125.172 29.958 124.612 29.622C124.061 29.2767 123.622 28.8007 123.296 28.194C122.978 27.578 122.82 26.8827 122.82 26.108C122.82 25.3333 122.978 24.6473 123.296 24.05C123.622 23.4527 124.061 22.9907 124.612 22.664C125.172 22.328 125.788 22.16 126.46 22.16ZM129.134 26.136C129.134 25.604 129.022 25.142 128.798 24.75C128.583 24.358 128.298 24.0593 127.944 23.854C127.589 23.6487 127.206 23.546 126.796 23.546C126.385 23.546 126.002 23.6487 125.648 23.854C125.293 24.05 125.004 24.344 124.78 24.736C124.565 25.1187 124.458 25.576 124.458 26.108C124.458 26.64 124.565 27.1067 124.78 27.508C125.004 27.9093 125.293 28.2173 125.648 28.432C126.012 28.6373 126.394 28.74 126.796 28.74C127.206 28.74 127.589 28.6373 127.944 28.432C128.298 28.2267 128.583 27.928 128.798 27.536C129.022 27.1347 129.134 26.668 129.134 26.136ZM139.91 25.954C139.91 26.2433 139.891 26.5047 139.854 26.738H133.96C134.007 27.354 134.235 27.8487 134.646 28.222C135.057 28.5953 135.561 28.782 136.158 28.782C137.017 28.782 137.623 28.4227 137.978 27.704H139.7C139.467 28.4133 139.042 28.9967 138.426 29.454C137.819 29.902 137.063 30.126 136.158 30.126C135.421 30.126 134.758 29.9627 134.17 29.636C133.591 29.3 133.134 28.8333 132.798 28.236C132.471 27.6293 132.308 26.9293 132.308 26.136C132.308 25.3427 132.467 24.6473 132.784 24.05C133.111 23.4433 133.563 22.9767 134.142 22.65C134.73 22.3233 135.402 22.16 136.158 22.16C136.886 22.16 137.535 22.3187 138.104 22.636C138.673 22.9533 139.117 23.4013 139.434 23.98C139.751 24.5493 139.91 25.2073 139.91 25.954ZM138.244 25.45C138.235 24.862 138.025 24.3907 137.614 24.036C137.203 23.6813 136.695 23.504 136.088 23.504C135.537 23.504 135.066 23.6813 134.674 24.036C134.282 24.3813 134.049 24.8527 133.974 25.45H138.244ZM150.819 22.16C151.425 22.16 151.967 22.286 152.443 22.538C152.928 22.79 153.306 23.1633 153.577 23.658C153.857 24.1527 153.997 24.75 153.997 25.45V30H152.415V25.688C152.415 24.9973 152.242 24.47 151.897 24.106C151.551 23.7327 151.08 23.546 150.483 23.546C149.885 23.546 149.409 23.7327 149.055 24.106C148.709 24.47 148.537 24.9973 148.537 25.688V30H146.955V25.688C146.955 24.9973 146.782 24.47 146.437 24.106C146.091 23.7327 145.62 23.546 145.023 23.546C144.425 23.546 143.949 23.7327 143.595 24.106C143.249 24.47 143.077 24.9973 143.077 25.688V30H141.481V22.286H143.077V23.168C143.338 22.8507 143.669 22.6033 144.071 22.426C144.472 22.2487 144.901 22.16 145.359 22.16C145.975 22.16 146.525 22.2907 147.011 22.552C147.496 22.8133 147.869 23.1913 148.131 23.686C148.364 23.2193 148.728 22.8507 149.223 22.58C149.717 22.3 150.249 22.16 150.819 22.16ZM163.098 25.954C163.098 26.2433 163.079 26.5047 163.042 26.738H157.148C157.194 27.354 157.423 27.8487 157.834 28.222C158.244 28.5953 158.748 28.782 159.346 28.782C160.204 28.782 160.811 28.4227 161.166 27.704H162.888C162.654 28.4133 162.23 28.9967 161.614 29.454C161.007 29.902 160.251 30.126 159.346 30.126C158.608 30.126 157.946 29.9627 157.358 29.636C156.779 29.3 156.322 28.8333 155.986 28.236C155.659 27.6293 155.496 26.9293 155.496 26.136C155.496 25.3427 155.654 24.6473 155.972 24.05C156.298 23.4433 156.751 22.9767 157.33 22.65C157.918 22.3233 158.59 22.16 159.346 22.16C160.074 22.16 160.722 22.3187 161.292 22.636C161.861 22.9533 162.304 23.4013 162.622 23.98C162.939 24.5493 163.098 25.2073 163.098 25.954ZM161.432 25.45C161.422 24.862 161.212 24.3907 160.802 24.036C160.391 23.6813 159.882 23.504 159.276 23.504C158.725 23.504 158.254 23.6813 157.862 24.036C157.47 24.3813 157.236 24.8527 157.162 25.45H161.432ZM168.56 22.16C169.167 22.16 169.708 22.286 170.184 22.538C170.669 22.79 171.047 23.1633 171.318 23.658C171.589 24.1527 171.724 24.75 171.724 25.45V30H170.142V25.688C170.142 24.9973 169.969 24.47 169.624 24.106C169.279 23.7327 168.807 23.546 168.21 23.546C167.613 23.546 167.137 23.7327 166.782 24.106C166.437 24.47 166.264 24.9973 166.264 25.688V30H164.668V22.286H166.264V23.168C166.525 22.8507 166.857 22.6033 167.258 22.426C167.669 22.2487 168.103 22.16 168.56 22.16ZM175.622 23.588V27.858C175.622 28.1473 175.687 28.3573 175.818 28.488C175.958 28.6093 176.191 28.67 176.518 28.67H177.498V30H176.238C175.519 30 174.969 29.832 174.586 29.496C174.203 29.16 174.012 28.614 174.012 27.858V23.588H173.102V22.286H174.012V20.368H175.622V22.286H177.498V23.588H175.622Z" fill="white"/>
</svg>
