<svg width="17" height="16" viewBox="0 0 17 16" fill="none" xmlns="http://www.w3.org/2000/svg">
<path d="M7.91293 13.088C8.03026 13.2053 8.17426 13.264 8.34493 13.264C8.5156 13.264 8.65426 13.2053 8.76093 13.088L12.7609 9.08798C12.8783 8.97064 12.9369 8.82931 12.9369 8.66398C12.9369 8.49864 12.8809 8.35731 12.7689 8.23998C12.6569 8.12264 12.5156 8.06398 12.3449 8.06398C12.1743 8.06398 12.0303 8.12264 11.9129 8.23998L8.34493 11.824L4.76093 8.23998C4.65426 8.12264 4.5156 8.06398 4.34493 8.06398C4.17426 8.06398 4.03293 8.12264 3.92093 8.23998C3.80893 8.35731 3.75293 8.49864 3.75293 8.66398C3.75293 8.82931 3.80626 8.97064 3.91293 9.08798L7.91293 13.088ZM8.34493 7.15198L4.76093 3.56798C4.65426 3.45064 4.5156 3.39198 4.34493 3.39198C4.17426 3.39198 4.03293 3.45064 3.92093 3.56798C3.80893 3.68531 3.75293 3.82664 3.75293 3.99198C3.75293 4.15731 3.80626 4.29864 3.91293 4.41598L7.91293 8.41598C8.03026 8.53331 8.17426 8.59198 8.34493 8.59198C8.5156 8.59198 8.65426 8.53331 8.76093 8.41598L12.7609 4.41598C12.8783 4.29864 12.9369 4.15731 12.9369 3.99198C12.9369 3.82664 12.8809 3.68531 12.7689 3.56798C12.6569 3.45064 12.5156 3.39198 12.3449 3.39198C12.1743 3.39198 12.0303 3.45064 11.9129 3.56798L8.34493 7.15198Z" fill="white"/>
</svg>
