<svg width="24" height="25" viewBox="0 0 24 25" fill="none" xmlns="http://www.w3.org/2000/svg">
<path d="M0 12.5039C0 10.8719 0.312 9.31191 0.936 7.82391C1.544 6.39991 2.404 5.13191 3.516 4.01991C4.628 2.90791 5.896 2.04791 7.32 1.43991C8.808 0.815907 10.368 0.503906 12 0.503906C13.632 0.503906 15.192 0.815907 16.68 1.43991C18.104 2.04791 19.372 2.90791 20.484 4.01991C21.596 5.13191 22.456 6.39991 23.064 7.82391C23.688 9.31191 24 10.8719 24 12.5039C24 14.1359 23.688 15.6959 23.064 17.1839C22.456 18.6079 21.596 19.8759 20.484 20.9879C19.372 22.0999 18.104 22.9599 16.68 23.5679C15.192 24.1919 13.632 24.5039 12 24.5039C10.368 24.5039 8.808 24.1919 7.32 23.5679C5.896 22.9599 4.628 22.0999 3.516 20.9879C2.404 19.8759 1.544 18.6079 0.936 17.1839C0.312 15.6959 0 14.1359 0 12.5039ZM12.24 6.50391C10.976 6.50391 10.12 6.51191 9.672 6.52791C9.064 6.57591 8.56 6.67191 8.16 6.81591C7.728 6.99191 7.36 7.23191 7.056 7.53591C6.72 7.87191 6.48 8.24791 6.336 8.66391C6.16 9.04791 6.064 9.55191 6.048 10.1759C6.032 10.4959 6.016 10.7919 6 11.0639V14.4239C6.016 14.7119 6.032 15.0159 6.048 15.3359C6.064 15.9279 6.152 16.4279 6.312 16.8359C6.472 17.2439 6.72 17.6159 7.056 17.9519C7.36 18.2559 7.736 18.4959 8.184 18.6719C8.632 18.8479 9.128 18.9439 9.672 18.9599L10.008 18.9839C10.584 18.9999 11.332 19.0079 12.252 19.0079C13.172 19.0079 13.92 18.9999 14.496 18.9839L14.832 18.9599C15.344 18.9439 15.848 18.8479 16.344 18.6719C16.776 18.4959 17.144 18.2559 17.448 17.9519C17.784 17.6159 18.032 17.2439 18.192 16.8359C18.352 16.4279 18.44 15.9279 18.456 15.3359C18.472 15.0159 18.488 14.7119 18.504 14.4239V11.0639C18.488 10.7919 18.472 10.4959 18.456 10.1759C18.44 9.55191 18.344 9.04791 18.168 8.66391C18.04 8.24791 17.8 7.87191 17.448 7.53591C17.144 7.23191 16.78 6.99991 16.356 6.83991C15.932 6.67991 15.424 6.57591 14.832 6.52791C14.384 6.51191 13.52 6.50391 12.24 6.50391ZM11.688 7.63191C11.88 7.63191 12.064 7.63191 12.24 7.63191C13.488 7.63191 14.336 7.63991 14.784 7.65591C15.168 7.67191 15.544 7.74391 15.912 7.87191H15.936C16.208 7.98391 16.452 8.14791 16.668 8.36391C16.884 8.57991 17.032 8.81591 17.112 9.07191C17.24 9.35991 17.312 9.74391 17.328 10.2239C17.344 10.5439 17.36 10.8399 17.376 11.1119V14.3999C17.36 14.6559 17.344 14.9439 17.328 15.2639C17.312 15.7599 17.24 16.1519 17.112 16.4399C17.032 16.6639 16.88 16.9039 16.656 17.1599C16.48 17.3359 16.244 17.4879 15.948 17.6159C15.652 17.7439 15.264 17.8159 14.784 17.8319L14.448 17.8559C13.888 17.8719 13.156 17.8799 12.252 17.8799C11.348 17.8799 10.616 17.8719 10.056 17.8559L9.72 17.8319C9.24 17.8159 8.852 17.7439 8.556 17.6159C8.26 17.4879 8.024 17.3359 7.848 17.1599C7.64 16.9519 7.48 16.7119 7.368 16.4399C7.256 16.0719 7.188 15.6759 7.164 15.2519C7.14 14.8279 7.128 13.9919 7.128 12.7439C7.128 11.4959 7.14 10.6559 7.164 10.2239C7.188 9.79191 7.256 9.40791 7.368 9.07191C7.464 8.81591 7.62 8.57991 7.836 8.36391C8.052 8.14791 8.296 7.98391 8.568 7.87191H8.592C8.96 7.74391 9.336 7.67191 9.72 7.65591C10.104 7.63991 10.76 7.63191 11.688 7.63191ZM15.576 8.66391C15.368 8.66391 15.192 8.73591 15.048 8.87991C14.904 9.02391 14.832 9.19991 14.832 9.40791C14.832 9.61591 14.904 9.79191 15.048 9.93591C15.192 10.0799 15.368 10.1519 15.576 10.1519C15.784 10.1519 15.964 10.0799 16.116 9.93591C16.268 9.79191 16.344 9.61591 16.344 9.40791C16.344 9.19991 16.268 9.02391 16.116 8.87991C15.964 8.73591 15.784 8.66391 15.576 8.66391ZM12.24 9.52791C11.664 9.52791 11.132 9.67191 10.644 9.95991C10.156 10.2479 9.768 10.6399 9.48 11.1359C9.192 11.6319 9.048 12.1679 9.048 12.7439C9.048 13.3199 9.192 13.8559 9.48 14.3519C9.768 14.8479 10.156 15.2399 10.644 15.5279C11.132 15.8159 11.664 15.9599 12.24 15.9599C12.816 15.9599 13.352 15.8159 13.848 15.5279C14.344 15.2399 14.736 14.8479 15.024 14.3519C15.312 13.8559 15.456 13.3199 15.456 12.7439C15.456 12.1679 15.312 11.6319 15.024 11.1359C14.736 10.6399 14.344 10.2479 13.848 9.95991C13.352 9.67191 12.816 9.52791 12.24 9.52791ZM12.24 10.6559C12.816 10.6559 13.308 10.8599 13.716 11.2679C14.124 11.6759 14.328 12.1679 14.328 12.7439C14.328 13.3199 14.124 13.8119 13.716 14.2199C13.308 14.6279 12.82 14.8319 12.252 14.8319C11.684 14.8319 11.196 14.6279 10.788 14.2199C10.38 13.8119 10.176 13.3199 10.176 12.7439C10.176 12.1679 10.38 11.6759 10.788 11.2679C11.196 10.8599 11.68 10.6559 12.24 10.6559Z" fill="white"/>
</svg>
