<svg width="24" height="25" viewBox="0 0 24 25" fill="none" xmlns="http://www.w3.org/2000/svg">
<path d="M0 12.5039C0 10.8719 0.312 9.31191 0.936 7.82391C1.544 6.39991 2.404 5.13191 3.516 4.01991C4.628 2.90791 5.896 2.04791 7.32 1.43991C8.808 0.815907 10.368 0.503906 12 0.503906C13.632 0.503906 15.192 0.815907 16.68 1.43991C18.104 2.04791 19.372 2.90791 20.484 4.01991C21.596 5.13191 22.456 6.39991 23.064 7.82391C23.688 9.31191 24 10.8719 24 12.5039C24 14.1359 23.688 15.6959 23.064 17.1839C22.456 18.6079 21.596 19.8759 20.484 20.9879C19.372 22.0999 18.104 22.9599 16.68 23.5679C15.192 24.1919 13.632 24.5039 12 24.5039C10.368 24.5039 8.808 24.1919 7.32 23.5679C5.896 22.9599 4.628 22.0999 3.516 20.9879C2.404 19.8759 1.544 18.6079 0.936 17.1839C0.312 15.6959 0 14.1359 0 12.5039ZM8.472 10.5599H5.664V19.0079H8.472V10.5599ZM8.664 7.94391C8.648 7.52791 8.496 7.18391 8.208 6.91191C7.92 6.63991 7.54 6.50391 7.068 6.50391C6.596 6.50391 6.216 6.63991 5.928 6.91191C5.64 7.18391 5.496 7.52791 5.496 7.94391C5.496 8.35991 5.64 8.70791 5.928 8.98791C6.216 9.26791 6.592 9.40791 7.056 9.40791H7.08C7.544 9.40791 7.924 9.26791 8.22 8.98791C8.516 8.70791 8.664 8.35991 8.664 7.94391ZM18.6 14.1599C18.6 12.9119 18.288 11.9519 17.664 11.2799C17.104 10.6719 16.336 10.3679 15.36 10.3679C14.704 10.3679 14.144 10.5279 13.68 10.8479C13.36 11.0719 13.08 11.3759 12.84 11.7599V10.5599H10.032C10.048 10.8959 10.048 12.3999 10.032 15.0719V19.0079H12.84V14.2799C12.84 13.9759 12.872 13.7519 12.936 13.6079C13.048 13.3199 13.216 13.0879 13.44 12.9119C13.696 12.6879 14.008 12.5759 14.376 12.5759C14.856 12.5759 15.212 12.7439 15.444 13.0799C15.676 13.4159 15.792 13.8879 15.792 14.4959V19.0079H18.6V14.1599Z" fill="white"/>
</svg>
