<svg width="24" height="25" viewBox="0 0 24 25" fill="none" xmlns="http://www.w3.org/2000/svg">
<path d="M0 12.5039C0 10.8719 0.312 9.31191 0.936 7.82391C1.544 6.39991 2.404 5.13191 3.516 4.01991C4.628 2.90791 5.896 2.04791 7.32 1.43991C8.808 0.815907 10.368 0.503906 12 0.503906C13.632 0.503906 15.192 0.815907 16.68 1.43991C18.104 2.04791 19.372 2.90791 20.484 4.01991C21.596 5.13191 22.456 6.39991 23.064 7.82391C23.688 9.31191 24 10.8719 24 12.5039C24 14.1359 23.688 15.6959 23.064 17.1839C22.456 18.6079 21.596 19.8759 20.484 20.9879C19.372 22.0999 18.104 22.9599 16.68 23.5679C15.192 24.1919 13.632 24.5039 12 24.5039C10.368 24.5039 8.808 24.1919 7.32 23.5679C5.896 22.9599 4.628 22.0999 3.516 20.9879C2.404 19.8759 1.544 18.6079 0.936 17.1839C0.312 15.6959 0 14.1359 0 12.5039ZM18.24 9.40791C18.176 9.13591 18.044 8.89591 17.844 8.68791C17.644 8.47991 17.408 8.33591 17.136 8.25591C16.72 8.14391 15.784 8.06391 14.328 8.01591L12.24 7.99191L10.176 8.01591C8.72 8.06391 7.784 8.14391 7.368 8.25591C7.096 8.33591 6.86 8.47991 6.66 8.68791C6.46 8.89591 6.328 9.13591 6.264 9.40791C6.152 9.82391 6.072 10.4559 6.024 11.3039L6 12.4799L6.024 13.6559C6.072 14.5199 6.152 15.1599 6.264 15.5759C6.328 15.8479 6.46 16.0839 6.66 16.2839C6.86 16.4839 7.1 16.6239 7.38 16.7039C7.66 16.7839 8.224 16.8479 9.072 16.8959C9.664 16.9439 10.368 16.9759 11.184 16.9919H12.24H13.296C14.112 16.9759 14.824 16.9439 15.432 16.8959C16.28 16.8479 16.844 16.7839 17.124 16.7039C17.404 16.6239 17.644 16.4839 17.844 16.2839C18.044 16.0839 18.176 15.8479 18.24 15.5759C18.352 15.1599 18.432 14.5199 18.48 13.6559L18.504 12.4799L18.48 11.3039C18.432 10.4559 18.352 9.82391 18.24 9.40791ZM11.088 14.6399V10.7279L14.208 12.6959L11.088 14.6399Z" fill="white"/>
</svg>
