<svg width="24" height="25" viewBox="0 0 24 25" fill="none" xmlns="http://www.w3.org/2000/svg">
<path d="M0 12.5039C0 10.8719 0.312 9.31191 0.936 7.82391C1.544 6.39991 2.404 5.13191 3.516 4.01991C4.628 2.90791 5.896 2.04791 7.32 1.43991C8.808 0.815907 10.368 0.503906 12 0.503906C13.632 0.503906 15.192 0.815907 16.68 1.43991C18.104 2.04791 19.372 2.90791 20.484 4.01991C21.596 5.13191 22.456 6.39991 23.064 7.82391C23.688 9.31191 24 10.8719 24 12.5039C24 14.1359 23.688 15.6959 23.064 17.1839C22.456 18.6079 21.596 19.8759 20.484 20.9879C19.372 22.0999 18.104 22.9599 16.68 23.5679C15.192 24.1919 13.632 24.5039 12 24.5039C10.368 24.5039 8.808 24.1919 7.32 23.5679C5.896 22.9599 4.628 22.0999 3.516 20.9879C2.404 19.8759 1.544 18.6079 0.936 17.1839C0.312 15.6959 0 14.1359 0 12.5039ZM12.888 19.0079V12.7439H14.616L14.832 10.5839H12.888V9.50391C12.888 9.18391 12.928 8.97591 13.008 8.87991C13.12 8.73591 13.368 8.66391 13.752 8.66391H14.832V6.50391H13.104C12.096 6.50391 11.368 6.75191 10.92 7.24791C10.504 7.69591 10.296 8.38391 10.296 9.31191V10.5839H9V12.7439H10.296V19.0079H12.888Z" fill="white"/>
</svg>
