<svg width="43" height="43" viewBox="0 0 43 43" fill="none" xmlns="http://www.w3.org/2000/svg">
<g clip-path="url(#clip0_97_500)">
<path d="M31.3675 27.2974C31.1344 28.3264 29.6219 28.1747 28.612 27.8693C26.3484 27.1849 22.3536 26.0584 21.71 26.4251C21.0996 26.773 19.8059 29.9243 19.026 31.9458C18.6098 33.0245 17.6083 34.2313 16.6142 33.641C16.2314 33.4137 15.9456 33.0793 15.7568 32.638C15.6976 32.5002 15.6507 32.3486 15.6162 32.1832C15.5817 32.0177 15.5668 31.853 15.5715 31.689L16.2605 15.4236C16.2792 15.1217 16.3556 14.868 16.49 14.6626C16.6244 14.4572 16.7962 14.3102 17.0055 14.2215C17.2148 14.1328 17.4398 14.1093 17.6803 14.1508C17.9209 14.1924 18.1576 14.3114 18.3905 14.5077L30.6694 25.1973C30.7913 25.3082 30.9006 25.4323 30.9973 25.5697C31.094 25.7071 31.1718 25.8455 31.2307 25.9847C31.4203 26.4257 31.4659 26.8633 31.3675 27.2974Z" fill="#C40061"/>
</g>
<defs>
<clipPath id="clip0_97_500">
<rect width="32.3251" height="32.3251" fill="white" transform="translate(12.9295 43) scale(1.0126) rotate(-113.266)"/>
</clipPath>
</defs>
</svg>
